<svg xmlns="http://www.w3.org/2000/svg" xmlns:xlink="http://www.w3.org/1999/xlink" viewBox="0 0 202 159"><defs><clipPath id="f7da6652-4ee9-44ca-8ee2-681871ee35b8" transform="translate(-1.63 -45)"><rect width="203.5" height="233" style="fill:none"/></clipPath></defs><title>Asset 5</title><g id="880c56b4-1d9d-41bc-8b19-8627d2c3e771" data-name="Layer 2"><g id="05c7fbe1-fcc5-4648-83ea-62d0d1a232bf" data-name="Layer 1"><g style="clip-path:url(#f7da6652-4ee9-44ca-8ee2-681871ee35b8)"><path d="M153,181c0-.82-.08-1.63-.08-2.45V48.79c0-2.67,0-2.67,1.9-2.7.2,0,.4,0,.6,0,1.82-.21,1.82-.21,1.82,2.54V176.28c0,.88,0,1.75,0,2.63Z" transform="translate(-1.63 -45)" style="fill:#d8d7b8"/><path d="M198.63,204l-177-5a5,5,0,0,1-5-5l-15-70a5,5,0,0,1,5-5L188.24,79.45a4.87,4.87,0,0,1,5.54,1.76,5,5,0,0,1,.85,2.79l9,115A5,5,0,0,1,198.63,204Z" transform="translate(-1.63 -45)" style="fill:#c3d10b"/><polygon points="152 0 51 7 51 148 152 140 152 0" style="fill:#fdfde4"/><path d="M154,137.14l4.27-1.43,1.7-.57c1.58-.54,2.29-.38,3.35.93a7.22,7.22,0,0,1,1.76,5,2.41,2.41,0,0,1-1.76,2.42l-5.07,1.77-4.33,1.44-5.8,1.87q-4.81,1.51-9.62,3-4.58,1.47-9.13,3c-.55.18-.85.16-1.1-.41-.92-2.16-3.38-2.87-5.68-2.13-1.15.37-1.59,1.35-2,2.3a5.91,5.91,0,0,1-.66,1.11,19,19,0,0,1-4.26-.4c-.42-.05-1,0-1.09-.54s.36-.77.67-1.06a46,46,0,0,1,4.46-3.43c.23-.16.43-.35.65-.52a22.21,22.21,0,0,1,5.51-2.81c1.58-.41,3.11-1,4.66-1.54,3.9-1.38,7.88-2.54,11.74-4.07C146.19,139.93,150.08,138.51,154,137.14Z" transform="translate(-1.63 -45)" style="fill:#052649"/><path d="M60.79,100.13c-.33-1,.22-1.32,1.38-1.43,7-.63,14-1.34,21-2l23.5-2.3,20.87-2c3.73-.36,7.47-.7,11.2-1.13.85-.09,1.1,0,1.09.93,0,2.22,0,2.18-2.29,2.4-7.83.74-15.66,1.53-23.5,2.29L88,99.33q-12.75,1.23-25.52,2.47C60.79,102,60.79,102,60.79,100.13Z" transform="translate(-1.63 -45)" style="fill:#052649"/><path d="M139.8,110.58c.32,1.13-.27,1.43-1.54,1.54-12.14,1.06-24.27,2.2-36.4,3.32l-36.4,3.37c-1.31.12-2.63.24-3.93.4-.59.08-.73-.08-.76-.68-.08-2.39-.1-2.39,2.29-2.61q18.61-1.73,37.23-3.44,17.31-1.62,34.6-3.28c1.12-.1,2.23-.2,3.35-.28C139.79,108.82,139.8,108.83,139.8,110.58Z" transform="translate(-1.63 -45)" style="fill:#052649"/><path d="M139.8,101.84c.41,1.18-.37,1.37-1.49,1.47-7.16.64-14.31,1.33-21.47,2l-24.21,2.29-21.7,2c-3,.28-6.05.56-9.06.9-.78.08-1.13,0-1.1-.92,0-2.15,0-2.15,2.17-2.35q22.07-2.09,44.13-4.17,15.68-1.5,31.35-3C139.79,99.94,139.8,100,139.8,101.84Z" transform="translate(-1.63 -45)" style="fill:#052649"/><path d="M84.91,156.87c2.58,2,5.91,1,7.35-2,1-2.06,1.27-2.13,3.5-1.49a6.54,6.54,0,0,0,6.87-1.93c1.46-1.5,2.43-1.41,3.4.42.13.24.25.5.39.74,1,1.64,1.91,1.93,3.56,1a7.39,7.39,0,0,0,1.64-1.19c.57-.59.84-.31,1.3.14.62.62,0,.83-.28,1.09a10,10,0,0,1-2.59,1.71,3.58,3.58,0,0,1-4.92-1.59c-.32-.5-.59-1-.94-1.64-2.06,2.26-4.6,3.56-7.55,3-1.89-.34-2.68.06-3.81,1.62a6.14,6.14,0,0,1-9.83.71c-.1-.11-.24-.28-.36-.28a18.86,18.86,0,0,0-4.72.72c-.31.08-.13.41-.1.63a15.48,15.48,0,0,1,.26,2.13c0,.76.33.82,1,.76q6.57-.58,13.13-1.12,11.46-.95,22.93-1.84c.26,0,.68-.28.77.25s-.28.55-.68.59l-11.82.95-24.36,2c-.61,0-.9.23-.94.91a14.48,14.48,0,0,1-1.91,6.24c-1.42,2.55-4.14,3.82-6.39,3s-3.57-3.61-3-6.49a18,18,0,0,1,.88-2.7l-6.53.5c-.34,0-.79.25-.86-.31s.41-.46.75-.49c2-.16,4.06-.35,6.09-.48a2.09,2.09,0,0,0,1.72-.86,13.22,13.22,0,0,1,5.93-4.31c.72-.3.85-.58.47-1.2a.36.36,0,0,1,0-.11c-2.41-5.86-6.81-6.24-11.56-3.54-.78.44-1,.15-1.36-.36-.56-.75.25-.81.54-1a11.18,11.18,0,0,1,7.07-1.78,6.69,6.69,0,0,1,4.67,2.38A15.26,15.26,0,0,1,76,153.93c.47.8.51,2.12,1.33,2.38s1.84-.45,2.78-.45c1.44,0,1.79-.51,1.68-1.93a4.89,4.89,0,0,1,2.09-4.47,3.59,3.59,0,0,1,4.88,5.27C88,155.66,87.31,156.06,84.91,156.87Zm-12,5.9c-.61,0-1.53.15-2.44.17a1.26,1.26,0,0,0-1.23.76,7.42,7.42,0,0,0-1,3.53,3.88,3.88,0,0,0,2.36,3.7,3.6,3.6,0,0,0,3.78-1.72,12.88,12.88,0,0,0,2.05-5.93c.07-.6,0-.89-.75-.77S74,162.67,72.88,162.77Zm10.51-8.69c.18.32-.2,1.08.57,1.24,1.31.27,3.64-1.15,4.08-2.42a1.85,1.85,0,0,0-.33-2,1.91,1.91,0,0,0-2.07-.53C84.3,150.76,83.39,152.16,83.39,154.08Zm-13.07,8.06,5.46-.43c.26,0,.66.07.68-.3a7.47,7.47,0,0,0-.36-2.7c-.1-.32-.42-.17-.61-.09A13.12,13.12,0,0,0,70.32,162.14Z" transform="translate(-1.63 -45)" style="fill:#052649"/><path d="M60.92,126.5c-.43-1.45.08-1.75,1.27-1.85,8.51-.72,17-1.52,25.52-2.3,7.39-.67,14.79-1.33,22.18-2,2.39-.23,2.7.08,2.28,2.51-.09.53-.4.47-.76.51l-15.86,1.43-22.66,2.06c-3.73.34-7.47.65-11.2,1C60,128,61.23,126.7,60.92,126.5Z" transform="translate(-1.63 -45)" style="fill:#052649"/><path d="M87,67.51c.47,1.48-.4,1.57-1.48,1.68Q73.56,70.41,61.64,71.7c-.72.08-.86-.15-.86-.82,0-2.22-.05-2.24,2.07-2.47,7.66-.81,15.34-1.57,23-2.45C87.51,65.77,86.87,66.85,87,67.51Z" transform="translate(-1.63 -45)" style="fill:#052649"/><path d="M82.87,77.58c.27,1-.15,1.32-1.38,1.43-6.59.6-13.17,1.32-19.75,2-.69.08-1,0-1-.8,0-2.28,0-2.26,2.29-2.49q9-.9,18.08-1.86C82.88,75.7,82.88,75.66,82.87,77.58Z" transform="translate(-1.63 -45)" style="fill:#052649"/><path d="M159.67,176.36c1,6.43-3,10.15-7.56,13.39A17.54,17.54,0,0,1,141,193.13a10.41,10.41,0,0,1-4.45-1.46c-.3-.16-.5-.57-.93-.39h0c.07-.24-.08-.26-.25-.27l0,0c0-.19-.1-.26-.26-.28l0,0-.26-.23c-.74-.4-.9-1.33-1.63-1.74a28.42,28.42,0,0,0-2.67-3.33,102.94,102.94,0,0,1-6-9.21c-2.81-5.16-5-10.52-5-16.51a28.45,28.45,0,0,1,.34-3.43c0-.31.2-.62-.11-.88a5.91,5.91,0,0,0,.66-1.11c.46-1,.9-1.93,2-2.3,2.3-.74,4.76,0,5.68,2.13.25.57.55.59,1.1.41q4.54-1.54,9.13-3,4.8-1.55,9.62-3a33.33,33.33,0,0,1,1.27,4.6,51.92,51.92,0,0,0,4.34,13.37,36.08,36.08,0,0,0,4.51,7.74,10.33,10.33,0,0,0,1.23,1.93c0,.11,0,.24.23.21Z" transform="translate(-1.63 -45)" style="fill:#fdcc9b"/></g></g></g></svg>