<svg xmlns="http://www.w3.org/2000/svg" xmlns:xlink="http://www.w3.org/1999/xlink" viewBox="0 0 202 243.68"><defs><clipPath id="8a936ebe-03ce-4097-8f51-68475be976de" transform="translate(0 -6.91)"><rect x="0.37" width="202" height="233" style="fill:none"/></clipPath></defs><title>Asset 3</title><g id="9531fe12-51a5-407a-9700-6b4f833bd787" data-name="Layer 2"><g id="39163115-a51a-4f94-a22e-77f5bb8af83c" data-name="Layer 1"><g style="clip-path:url(#8a936ebe-03ce-4097-8f51-68475be976de)"><path d="M197,212,5,233a5,5,0,0,1-5-5V132a5,5,0,0,1,5-5L184,69a5,5,0,0,1,5,5l13,133A5,5,0,0,1,197,212Z" transform="translate(0 -6.91)" style="fill:#f4ef4e"/><rect x="86.31" y="148.23" width="29.39" height="32.92" style="fill:#fdcc9b"/><path d="M86.31,159a49.33,49.33,0,0,0,29.39,6v-9.93H86.31Z" transform="translate(0 -6.91)" style="fill:#fcbc85"/><ellipse cx="43.92" cy="97.18" rx="14.34" ry="16.36" style="fill:#fcbc85"/><ellipse cx="158.09" cy="97.18" rx="14.34" ry="16.36" style="fill:#fcbc85"/><path d="M158,72.84c0-24.11-17.63-41.74-57-41.74S44,48.73,44,72.84s-4.12,87.59,57,87.59S158,96.94,158,72.84Z" transform="translate(0 -6.91)" style="fill:#fdcc9b"/><path d="M102,133.61c-9.67,0-15.5-3.94-15.5-2.94s2.8,4.92,15.5,4.92,15.49-3.92,15.49-4.92S111.67,133.61,102,133.61Z" transform="translate(0 -6.91)" style="fill:#f7945e"/><path d="M101,168.37v37H29.58C29.58,190.42,67.2,168.37,101,168.37Z" transform="translate(0 -6.91)" style="fill:#f4bf3b"/><path d="M101,168.37v37h71.42C172.43,190.42,134.81,168.37,101,168.37Z" transform="translate(0 -6.91)" style="fill:#f4bf3b"/><path d="M101,168.37a93.78,93.78,0,0,0-21.69,2.72c.05.06,7.91,10.21,21.69,10.21,12.75,0,21.23-8.69,22.46-10A94.07,94.07,0,0,0,101,168.37Z" transform="translate(0 -6.91)" style="fill:#db520e"/><path d="M86.31,169.65S90.61,175,101,175s14.69-5.33,14.69-5.33S100.46,164.1,86.31,169.65Z" transform="translate(0 -6.91)" style="fill:#fdcc9b"/><path d="M147.89,26S126.73-.94,82.74,9.2s-47.28,36.59-46,62.33,4.85,40.84,9,39,2-18.86,2.44-22.78,4.41-21.65,31.16-19,49.3-7,49.3-7,9.07,11.47,15.05,13.67c11.93,4.39,8,33.67,12.69,33.67S184.05,41.38,147.89,26Z" transform="translate(0 -6.91)" style="fill:#774c3e"/><path d="M166.27,133.84c-3.86-1.93-47.83-.66-55.55,5.13a35.75,35.75,0,0,0-8.6,9.14,35.93,35.93,0,0,0-8.6-9.14c-7.72-5.79-52.44-7.06-56.3-5.13l54.37,16.72,8.18,1.17a9.09,9.09,0,0,1-.63.76l3-.43,3,.43a7.48,7.48,0,0,1-.63-.76l8.18-1.17Z" transform="translate(0 -6.91)" style="fill:#fdfde4"/><path d="M35.94,225.91l57.23,23.55a3.81,3.81,0,0,0,3.89-3.83L89.17,149c0-2.17-53.23-15.77-53.23-15.77A4,4,0,0,0,32,137.2V222A4,4,0,0,0,35.94,225.91Z" transform="translate(0 -6.91)" style="fill:#91c6c6"/><path d="M166.06,225.91l-57.17,23.66a4,4,0,0,1-4-3.94l9.11-96.13c0-2.16,52-16.24,52-16.24A4,4,0,0,1,170,137.2V222A4,4,0,0,1,166.06,225.91Z" transform="translate(0 -6.91)" style="fill:#91c6c6"/><path d="M101.73,151.8c-6.76,0-12.25-1.23-12.53-2.77h0v96.61c0,3.2,5.62,5,12.56,5s12.56-1.76,12.56-5V149h0C114,150.57,108.49,151.8,101.73,151.8Z" transform="translate(0 -6.91)" style="fill:#4e9caf"/><path d="M101.75,164c-6.94,0-12.56-1.53-12.56-3.42v5.14c0,1.89,5.62,3.42,12.56,3.42s12.56-1.53,12.56-3.42v-5.14C114.31,162.5,108.68,164,101.75,164Z" transform="translate(0 -6.91)" style="fill:#fdfde4"/><path d="M101.75,172.24c-6.94,0-12.56-1.53-12.56-3.43V174c0,1.89,5.62,3.43,12.56,3.43s12.56-1.54,12.56-3.43v-5.14C114.31,170.71,108.68,172.24,101.75,172.24Z" transform="translate(0 -6.91)" style="fill:#fdfde4"/><ellipse cx="169" cy="201.36" rx="6" ry="12" transform="translate(-0.42 -6.56) rotate(-0.12)" style="fill:#fcbc85"/><ellipse cx="169" cy="198.36" rx="6" ry="12" transform="translate(-0.41 -6.56) rotate(-0.12)" style="fill:#fdcc9b"/><ellipse cx="32" cy="201.64" rx="6" ry="12" transform="translate(-0.42 -6.84) rotate(-0.12)" style="fill:#fcbc85"/><ellipse cx="32" cy="198.64" rx="6" ry="12" transform="translate(-0.42 -6.84) rotate(-0.12)" style="fill:#fdcc9b"/><path d="M132.28,171.34l.16.52-2.78,3,4,.94.17.52-4.64-1.1-.12-.38Z" transform="translate(0 -6.91)" style="fill:#4e9caf"/><path d="M136.83,168l-1.2,10.16-.41.13,1.2-10.16Z" transform="translate(0 -6.91)" style="fill:#4e9caf"/><path d="M141,174.72a1.91,1.91,0,0,0,1.23-1.23l.38.2a2.27,2.27,0,0,1-1.49,1.48,2.42,2.42,0,0,1-2.9-1.9v0c-.44-1.43.08-2.84,1.24-3.2s2.32.5,2.78,1.95v0l0,.18-3.57,1.11A1.92,1.92,0,0,0,141,174.72Zm.71-2.81c-.37-1-1.15-1.73-2.14-1.43a1.92,1.92,0,0,0-1,2.41Z" transform="translate(0 -6.91)" style="fill:#4e9caf"/><path d="M147.82,173l-.34-1.1a2.17,2.17,0,0,1-1.39,1.77,2.43,2.43,0,0,1-2.89-1.9v0a2.47,2.47,0,0,1,1.29-3.23,2.16,2.16,0,0,1,2.14.62l-1-3.17.41-.13,2.19,7Zm-.74-2.48a2,2,0,0,0-2.41-1.56,1.91,1.91,0,0,0-1,2.63v0a2,2,0,0,0,2.35,1.59,2.05,2.05,0,0,0,1.09-2.66Z" transform="translate(0 -6.91)" style="fill:#4e9caf"/><path d="M147.88,166.14l-.2-.64.51-.17.21.65Zm2,6.18-1.53-4.91.41-.13,1.53,4.91Z" transform="translate(0 -6.91)" style="fill:#4e9caf"/><path d="M153.36,171.32a1.23,1.23,0,0,1-1.62-1l-1-3.22-.62.19-.13-.43.62-.19-.49-1.57.41-.13.49,1.57,1.51-.47.14.43-1.51.47,1,3.17c.22.7.66.84,1.16.68a1.35,1.35,0,0,0,.58-.37l.14.45A1.64,1.64,0,0,1,153.36,171.32Z" transform="translate(0 -6.91)" style="fill:#4e9caf"/><path d="M155.08,169.72l-.16-.52,2.78-3-4-.94-.16-.52,4.63,1.1.12.39Z" transform="translate(0 -6.91)" style="fill:#4e9caf"/><path d="M132.68,160.78l.16.52-2.78,3,4,.94.17.52-4.64-1.1-.12-.39Z" transform="translate(0 -6.91)" style="fill:#4e9caf"/><path d="M137.9,165.27a2,2,0,0,0,1.23-1.23l.38.19a2.26,2.26,0,0,1-1.49,1.49,2.43,2.43,0,0,1-2.9-1.91v0a2.44,2.44,0,0,1,1.24-3.2c1.21-.37,2.32.5,2.77,2v0c0,.06,0,.09.05.17l-3.57,1.12A1.92,1.92,0,0,0,137.9,165.27Zm.7-2.81c-.36-1-1.15-1.74-2.13-1.43a1.92,1.92,0,0,0-1,2.41Z" transform="translate(0 -6.91)" style="fill:#4e9caf"/><path d="M144.68,163.5l-.34-1.09a2.16,2.16,0,0,1-1.4,1.76,2.42,2.42,0,0,1-2.88-1.89v0a2.47,2.47,0,0,1,1.29-3.23,2.16,2.16,0,0,1,2.14.62l-1-3.18.41-.13,2.19,7Zm-.75-2.47a2,2,0,0,0-2.4-1.56c-.94.29-1.45,1.31-1,2.63v0a2,2,0,0,0,2.35,1.59,2.05,2.05,0,0,0,1.09-2.66Z" transform="translate(0 -6.91)" style="fill:#4e9caf"/><path d="M144.74,156.69l-.2-.65.51-.16.2.65Zm2,6.18L145.19,158l.41-.13,1.53,4.92Z" transform="translate(0 -6.91)" style="fill:#4e9caf"/><path d="M150.22,161.87a1.24,1.24,0,0,1-1.63-1l-1-3.21-.62.19-.14-.43.63-.2-.49-1.57.41-.12.49,1.56,1.51-.47.13.44-1.5.47,1,3.17c.22.7.66.84,1.16.68a1.35,1.35,0,0,0,.58-.37l.13.44A1.46,1.46,0,0,1,150.22,161.87Z" transform="translate(0 -6.91)" style="fill:#4e9caf"/><path d="M151.94,160.27l-.16-.52,2.78-3.05-4-.94-.16-.52,4.63,1.1.12.38Z" transform="translate(0 -6.91)" style="fill:#4e9caf"/></g></g></g></svg>