<svg xmlns="http://www.w3.org/2000/svg" xmlns:xlink="http://www.w3.org/1999/xlink" viewBox="0 0 235 244.95"><defs><clipPath id="cbbc843f-0c6e-48bd-b3d9-f0be8842da1b" transform="translate(-1.63 -0.05)"><rect width="238.5" height="233" style="fill:none"/></clipPath></defs><title>Asset 4</title><g id="8676b4a8-96eb-4a7c-a8a4-8db623a317f6" data-name="Layer 2"><g id="d27de507-3121-49b1-b255-44efa9a800bf" data-name="Layer 1"><g style="clip-path:url(#cbbc843f-0c6e-48bd-b3d9-f0be8842da1b)"><path d="M219.63,190l-174,40a5,5,0,0,1-5-5L1.63,95a5,5,0,0,1,5-5l225,33a5,5,0,0,1,5,5l-12,57A5,5,0,0,1,219.63,190Z" transform="translate(-1.63 -0.05)" style="fill:#ef9d25"/><path d="M191.54,133h-6.81a6.12,6.12,0,0,0-6.1,6.1v4l-.46-.62a2,2,0,1,0-3.22,2.37l3.68,5v4a6.12,6.12,0,0,0,6.1,6.1h6.81a6.11,6.11,0,0,0,6.09-6.1V139.1A6.11,6.11,0,0,0,191.54,133Z" transform="translate(-1.63 -0.05)" style="fill:#fdcc9b"/><rect x="87.59" y="154.77" width="29.39" height="32.92" style="fill:#fdcc9b"/><path d="M89.22,158.7a49.38,49.38,0,0,0,29.4,6.05v-9.93H89.22Z" transform="translate(-1.63 -0.05)" style="fill:#fcbc85"/><path d="M176.13,153s-5.5,21-21.5,23c-9.48,1.35-11.48-.14-13-.59h0a98.51,98.51,0,0,0-37.72-7.37v37l43.67-3.54c2.92,2.6,19-1.54,19-1.54a90.24,90.24,0,0,0,9-5c15-9,23-42,23-42Z" transform="translate(-1.63 -0.05)" style="fill:#b4def6"/><polygon points="23 210.28 23 240.95 145 240.95 145.74 198.02 25.88 203.6 23 210.28" style="fill:#b4def6"/><path d="M176.63,194c-5.13,4.61-20,14-25,20s-26,3-26,3l32-26Z" transform="translate(-1.63 -0.05)" style="fill:#b4def6"/><ellipse cx="45.2" cy="103.72" rx="14.34" ry="16.36" style="fill:#fcbc85"/><ellipse cx="159.37" cy="103.72" rx="14.34" ry="16.36" style="fill:#fcbc85"/><path d="M161,72.51c0-24.1-17.64-41.74-57-41.74s-57,17.64-57,41.74-4.11,87.6,57,87.6S161,96.62,161,72.51Z" transform="translate(-1.63 -0.05)" style="fill:#fdcc9b"/><path d="M103.92,138.28c-9.67,0-15.49-3.93-15.49-2.94s2.79,4.93,15.49,4.93,15.49-3.93,15.49-4.93S113.59,138.28,103.92,138.28Z" transform="translate(-1.63 -0.05)" style="fill:#f7945e"/><path d="M103.92,168.05v37H32.49C32.49,190.09,70.12,168.05,103.92,168.05Z" transform="translate(-1.63 -0.05)" style="fill:#b4def6"/><path d="M89.22,169.33s4.3,5.33,14.7,5.33,14.7-5.33,14.7-5.33S103.37,163.78,89.22,169.33Z" transform="translate(-1.63 -0.05)" style="fill:#fdcc9b"/><path d="M46.84,99.85c5.06,0,9.46-15.14,9-24.84S61.5,58.26,73.45,53c0,0,34.23,9.7,58.16,9.7,31.39,0,23.07,36.89,28.77,37.18s11.88-42,5.27-66.29c0,0,10.14-5.29,13.23-11.9s-8-.44-17.88,0c0,0,17.61-11.46,18.4-19.4s-32.33,8.38-69.23,4.41S42.81,23.29,41.31,54.73C40,82.45,42.22,99.85,46.84,99.85Z" transform="translate(-1.63 -0.05)" style="fill:#3d2807"/><path d="M89.22,165.69l14.7,9L88.43,190.09,76.92,172.18S84.45,164.77,89.22,165.69Z" transform="translate(-1.63 -0.05)" style="fill:#80cef3"/><path d="M118.62,165.69l-14.7,9,15.49,15.43,11.51-17.91S123.39,164.77,118.62,165.69Z" transform="translate(-1.63 -0.05)" style="fill:#80cef3"/><polygon points="102.29 174.61 102.29 205.03 104.61 176.92 102.29 174.61" style="fill:#65c8f2"/><path d="M102.82,183.26a2.28,2.28,0,1,1-2.28-2.28A2.28,2.28,0,0,1,102.82,183.26Z" transform="translate(-1.63 -0.05)" style="fill:#65c8f2"/><path d="M102.82,201.34a2.28,2.28,0,1,1-2.28-2.28A2.28,2.28,0,0,1,102.82,201.34Z" transform="translate(-1.63 -0.05)" style="fill:#65c8f2"/><polygon points="196 194.55 62.56 225.22 41 229.95 29 191.95 16 224.95 20 244.95 152 244.95 196 194.55" style="fill:#fff"/></g></g></g></svg>