<svg xmlns="http://www.w3.org/2000/svg" viewBox="0 0 175.73 182"><title>Asset 7</title><g id="b107ff58-b9d4-41fc-ac41-e97a74440cc6" data-name="Layer 2"><g id="3a90f3a9-a17d-4f78-9d1f-c341eb1500ae" data-name="Layer 1"><path d="M175.73,47.24l-.14,118.85c0,2.32-1.44,4.22-3.2,4.22l-168,7.23c-1.75,0-3.19-1.9-3.19-4.22L.11,12C-.18,9.18.1,8.38,1.23,7.37A2.68,2.68,0,0,1,3,6.65L172.54,43C174.3,43,175.73,44.92,175.73,47.24Z" style="fill:#c3d10b"/><path d="M87.12,57.5S93.6,73.79,91,80.16c-1.57,3.84,3.28,1.42,4.69,0,0,0,1.41,4.53-1.41,8.12s5.31,2.43,7.8-5c0,0,1.37,6.33-3.22,11s19.23,2.82,19.23,2.82V66.71Z" style="fill:#6d3b18"/><path d="M149.82,57.5s-6.9,16.29-4.3,22.66c1.56,3.84-3.28,1.42-4.69,0,0,0-1.41,4.53,1.41,8.12s-5.31,2.43-7.8-5c0,0-1.37,6.33,3.21,11s-19.23,2.82-19.23,2.82V66.71Z" style="fill:#6d3b18"/><rect x="111.7" y="75.95" width="13.45" height="15.07" style="fill:#fdcc9b"/><path d="M111.7,77.72a22.52,22.52,0,0,0,13.45,2.77V76H111.7Z" style="fill:#fcbc85"/><ellipse cx="92.3" cy="52.59" rx="6.56" ry="7.49" style="fill:#fcbc85"/><ellipse cx="144.55" cy="52.59" rx="6.56" ry="7.49" style="fill:#fcbc85"/><path d="M144.52,38.28c0-11-8.07-19.1-26.1-19.1s-26.1,8.07-26.1,19.1-1.88,40.09,26.1,40.09S144.52,49.31,144.52,38.28Z" style="fill:#fdcc9b"/><path d="M118.42,68.38c-4.42,0-7.09-1.8-7.09-1.34s1.1,3.28,6.91,3.28,7.27-2.83,7.27-3.28S122.85,68.38,118.42,68.38Z" style="fill:#f2618b"/><path d="M118.42,82V99H85.73C85.73,92.09,103,82,118.42,82Z" style="fill:#9d5fa0"/><path d="M118.24,82.2v17h32.69C150.93,92.29,133.71,82.2,118.24,82.2Z" style="fill:#9d5fa0"/><path d="M84.79,52.59c-3.38-16.65.81-29.32-.81-31.14s-4.23.61-4.44-.81,4.24-3.63,6.19-5.85S87.21,5.71,89,7.73s0,6.66,0,6.66c21-28.86,55.69-7.07,59.53,3S158.65,34.57,156,34.57c-3.08,0-4.92-4.24-4.92-4.24s2.9,8.07,1.48,19.94-14.12,19.06-12.22,15.92c3.88-6.41.92-18.49.92-18.49-.2,1.22-2.22,3-2.28.88-.33-10.81-6.6-14-6.6-14s2.22,3.43-.93,3.23a36.5,36.5,0,0,1-15.61-4.44s2.22,4.44,0,4.44c-7.48,0-15-4.44-15-4.44S97.16,41,97.26,47.7c0,2.41-2.38-.22-2.38-2,0,0-2.64,14.22,2,21.26C98.9,70,86.92,63.08,84.79,52.59Z" style="fill:#6d3b18"/><path d="M107.18,83.58,118.42,99V90.48l-5-8.13A48.41,48.41,0,0,0,107.18,83.58Z" style="fill:#d288d8"/><path d="M129.66,83.58,118.42,99V90.48l5-8.13A47.73,47.73,0,0,1,129.66,83.58Z" style="fill:#d288d8"/><path d="M111.7,82.59,118.42,93l6.73-10.4S118.17,80.05,111.7,82.59Z" style="fill:#fdcc9b"/><rect x="40.52" y="76.15" width="13.45" height="15.07" style="fill:#fdcc9b"/><path d="M40.52,77.92A22.49,22.49,0,0,0,54,80.69V76.15H40.52Z" style="fill:#fcbc85"/><ellipse cx="21.12" cy="52.78" rx="6.56" ry="7.49" style="fill:#fcbc85"/><ellipse cx="73.37" cy="52.78" rx="6.56" ry="7.49" style="fill:#fcbc85"/><path d="M73.34,38.48c0-11-8.07-19.1-26.1-19.1s-26.1,8.07-26.1,19.1-1.88,40.09,26.1,40.09S73.34,49.51,73.34,38.48Z" style="fill:#fdcc9b"/><path d="M47.24,68.58c-4.42,0-7.09-1.8-7.09-1.34s1.28,2.25,7.09,2.25,7.09-1.8,7.09-2.25S51.67,68.58,47.24,68.58Z" style="fill:#f7945e"/><path d="M47.24,82.2v17H14.55C14.55,92.29,31.77,82.2,47.24,82.2Z" style="fill:#f6a4b7"/><path d="M47.24,82.2v17H79.93C79.93,92.29,62.71,82.2,47.24,82.2Z" style="fill:#f6a4b7"/><path d="M40.52,82.79s2,2.44,6.72,2.44S54,82.79,54,82.79,47,80.25,40.52,82.79Z" style="fill:#fdcc9b"/><path d="M37.76,99.15,36.37,83.68s-3-.41-6.51,2.17l-2.95,13.3Z" style="fill:#665853"/><path d="M56.73,99.15l1.39-15.47s3-.41,6.5,2.17l2.95,13.3Z" style="fill:#665853"/><path d="M54,81.13l-6.73,4.1,7.09,7.06,5.27-8.2S56.15,80.7,54,81.13Z" style="fill:#f2788f"/><path d="M40.52,81.13l6.72,4.1-7.09,7.06-5.27-8.2S38.33,80.7,40.52,81.13Z" style="fill:#f2788f"/><path d="M76.1,19.31c-.63-1.25-2.42-1.41-3.36-1.95s-.95-2.83-2.69-3.77-2,.54-3.25.27-2.41-2.69-4-3.23-3.09.54-4.3.27-2-2.83-4.15-2.69-2.18,1.61-2.61,1.48-1.85-3.5-4.48-3.5-4,3.36-4.47,3.5-.49-1.35-2.62-1.48S37.22,10.63,36,10.9s-2.69-.81-4.31-.27-2.8,3-4,3.23-1.49-1.21-3.24-.27-1.75,3.23-2.69,3.77-2.73.7-3.36,1.95C16.1,23.81,20.19,55.6,22,55.6s.74-16.18,3.43-22.37,13.05-.81,21.86-.81S66.41,27,69.1,33.23,70.76,55.6,72.53,55.6,78.39,23.81,76.1,19.31Z" style="fill:#4c2d19"/><circle cx="47.56" cy="92.66" r="11.67" style="fill:#fff6b6"/><rect x="39.88" y="155.21" width="13.45" height="15.07" style="fill:#fdcc9b"/><path d="M39.88,157a22.49,22.49,0,0,0,13.45,2.77v-4.54H39.88Z" style="fill:#fcbc85"/><ellipse cx="20.48" cy="131.84" rx="6.56" ry="7.49" style="fill:#fcbc85"/><ellipse cx="72.73" cy="131.84" rx="6.56" ry="7.49" style="fill:#fcbc85"/><path d="M72.7,117.54c0-11-8.07-19.1-26.1-19.1s-26.1,8.07-26.1,19.1-1.88,40.09,26.1,40.09S72.7,128.57,72.7,117.54Z" style="fill:#fdcc9b"/><path d="M46.6,161.26v17H13.91C13.91,171.35,31.13,161.26,46.6,161.26Z" style="fill:#fbb8ff"/><path d="M46.6,161.26v17H79.29C79.29,171.35,62.07,161.26,46.6,161.26Z" style="fill:#fbb8ff"/><path d="M46.6,161.26a42.46,42.46,0,0,0-9.92,1.25,13.28,13.28,0,0,0,9.92,4.67,14.75,14.75,0,0,0,10.28-4.59A42.89,42.89,0,0,0,46.6,161.26Z" style="fill:#966bce"/><path d="M39.88,161.85s2,2.44,6.72,2.44,6.73-2.44,6.73-2.44S46.35,159.31,39.88,161.85Z" style="fill:#fdcc9b"/><path d="M46.78,110.27V88.21c-23,0-27.35,8.61-28.43,24.76s3.12,56.83,4.73,56.81-1-53.64,1.19-57.62C28.31,104.89,35.52,110.27,46.78,110.27Z" style="fill:#fff6b6"/><path d="M46.78,110.27V88.21c23,0,27.35,8.61,28.43,24.76s-3.38,55-5,55,1.28-51.81-.93-55.79C65.25,104.89,58,110.27,46.78,110.27Z" style="fill:#fff6b6"/><path d="M32.27,163.78c-10.16,3.43-18.36,9.7-18.36,14.43H32.27V163.78Z" style="fill:#966bce"/><path d="M33.25,178.21V162.74s-2.62,1-3.53,1.48l-2.68,14Z" style="fill:#f277c9"/><path d="M60.93,163.78c10.17,3.43,18.36,9.7,18.36,14.43H60.93V163.78Z" style="fill:#966bce"/><path d="M60,178.21V162.74s2.63,1,3.54,1.48l2.67,14Z" style="fill:#f277c9"/><path d="M46.6,148.16c-4.42,0-7.09-1.8-7.09-1.35s1.1,3.29,6.91,3.29,7.27-2.83,7.27-3.29S51,148.16,46.6,148.16Z" style="fill:#ef6262"/><path d="M47.79,86.94a18.52,18.52,0,0,1,4.7.56c-.72-.86-2.55-1.48-4.7-1.48s-4,.62-4.7,1.48A18.52,18.52,0,0,1,47.79,86.94Z" style="fill:#fbb8ff"/><rect x="112.35" y="155.21" width="13.45" height="15.07" style="fill:#fdcc9b"/><path d="M112.35,157a22.52,22.52,0,0,0,13.45,2.77v-4.54H112.35Z" style="fill:#fcbc85"/><ellipse cx="92.95" cy="131.84" rx="6.56" ry="7.49" style="fill:#fcbc85"/><ellipse cx="145.2" cy="131.84" rx="6.56" ry="7.49" style="fill:#fcbc85"/><path d="M145.18,117.54c0-11-8.08-19.1-26.1-19.1S93,106.51,93,117.54s-1.89,40.09,26.1,40.09S145.18,128.57,145.18,117.54Z" style="fill:#fdcc9b"/><path d="M119.08,147.64c-4.43,0-7.09-1.8-7.09-1.34s1.28,2.25,7.09,2.25,7.09-1.8,7.09-2.25S123.5,147.64,119.08,147.64Z" style="fill:#f7945e"/><path d="M119.08,161.26v17h32.69C151.77,171.35,134.55,161.26,119.08,161.26Z" style="fill:#7a707b"/><path d="M119.08,161.26v17H86.39C86.39,171.35,103.61,161.26,119.08,161.26Z" style="fill:#7a707b"/><path d="M103.94,164.06l8.15,14.15h7v-2l-9.92-13.67A52.48,52.48,0,0,0,103.94,164.06Z" style="fill:#665d67"/><path d="M134.21,164.06l-8.14,14.15h-7v-2L129,162.5A52.48,52.48,0,0,1,134.21,164.06Z" style="fill:#665d67"/><path d="M107.72,162.87c3.06,5,8.6,13.73,11.36,15.34v-17A44.07,44.07,0,0,0,107.72,162.87Z" style="fill:#fff"/><path d="M130.43,162.87c-3.06,5-8.59,13.73-11.35,15.34v-17A44,44,0,0,1,130.43,162.87Z" style="fill:#fff"/><path d="M119.2,161.26a42.61,42.61,0,0,0-9.93,1.25,13.29,13.29,0,0,0,9.93,4.67,14.8,14.8,0,0,0,10.28-4.59A43,43,0,0,0,119.2,161.26Z" style="fill:#c7c5c4"/><path d="M112.35,161.85s2,2.69,6.73,2.69,6.72-2.69,6.72-2.69S118.82,159.31,112.35,161.85Z" style="fill:#fdcc9b"/><path d="M119.08,89c-38.68,0-32.17,44.14-25.51,44.14,1.69,0,.53-22.22,3.65-21.81a116.82,116.82,0,0,0,21.86,1.76,116.92,116.92,0,0,0,21.86-1.76c3.11-.41,1.95,21.81,3.65,21.81C151.24,133.15,157.75,89,119.08,89Z" style="fill:#bf904b"/><polygon points="8.51 177.36 165.67 171 159.99 182 13.12 182 8.51 177.36" style="fill:#fff"/></g></g></svg>