<svg xmlns="http://www.w3.org/2000/svg" viewBox="0 0 209.39 151.05"><title>Asset 9</title><g id="0f29e544-72a1-4200-8aa1-515388958abe" data-name="Layer 2"><g id="680ea83b-a5a2-424d-9002-62ecb48f251a" data-name="Layer 1"><path d="M197.51,41.1,209.39,144a2.71,2.71,0,0,1-2.7,2.7L2.7,129.16a2.71,2.71,0,0,1-2.7-2.7l25-83c-.25-1.84,0-2.35.95-3a2.68,2.68,0,0,1,1.5-.46L194.81,38.4A2.71,2.71,0,0,1,197.51,41.1Z" style="fill:#f4ef4e"/><path d="M180.25,105.43H21.05V3.34c0-2.13,2.1-3.34,4.22-3.34H177.1c2.12,0,3.15,1.21,3.15,3.34Z" style="fill:#4d4d4d"/><rect x="27.38" y="7.38" width="147.6" height="90.14" style="fill:#f2f2f2"/><path d="M200.81,109.65v-4.46c0-1.06-.55-1.34-1.61-1.34H4.13c-1.06,0-2.06.28-2.06,1.34v4.46h.14s4.8,3.69,7.69,3.69H193.43c2.89,0,7.69-3.69,7.69-3.69Z" style="fill:#4d4d4d"/><path d="M119,107H84.37c-2.88,0-2.88-3.16-2.88-3.16h40.35S121.84,107,119,107Z" style="fill:#b3b3b3"/><path d="M86.42,20.26a2.26,2.26,0,0,1-2.16,2.41H59.44a2.59,2.59,0,0,1-2.54-2.41V15.61a2.61,2.61,0,0,1,2.54-2.43H84.26a2.28,2.28,0,0,1,2.16,2.43Z" style="fill:#f2c351"/><rect x="56.9" y="25.83" width="88.56" height="26.36" rx="2.33" ry="2.33" style="fill:#6892dd"/><path d="M84.31,68.35a2.33,2.33,0,0,1-2.37,2.29H59.44a2.49,2.49,0,0,1-2.54-2.29V56.72a2.6,2.6,0,0,1,2.54-2.42h22.5a2.45,2.45,0,0,1,2.37,2.42Z" style="fill:#999"/><rect x="87.47" y="54.3" width="26.88" height="16.34" rx="2.33" ry="2.33" style="fill:#999"/><rect x="118.05" y="54.3" width="26.88" height="16.34" rx="2.33" ry="2.33" style="fill:#999"/><path d="M114.36,75.14c0,.54-.27.77-.79.77H88.31c-.52,0-.84-.23-.84-.77v-.39a.86.86,0,0,1,.84-1h25.26c.52,0,.79.42.79,1Z" style="fill:#b3b3b3"/><path d="M114.36,79c0,.53-.27,1.11-.79,1.11H88.31c-.52,0-.84-.58-.84-1.11v-.39c0-.53.32-1.14.84-1.14h25.26c.52,0,.79.61.79,1.14Z" style="fill:#b3b3b3"/><path d="M114.36,82.9c0,.53-.27,1.44-.79,1.44H88.31c-.52,0-.84-.91-.84-1.44v-.39c0-.54.32-1.33.84-1.33h25.26c.52,0,.79.79.79,1.33Z" style="fill:#b3b3b3"/><path d="M114.36,86.78c0,.53-.27,1.25-.79,1.25H88.31c-.52,0-.84-.72-.84-1.25v-.39a.89.89,0,0,1,.84-1h25.26c.52,0,.79.45.79,1Z" style="fill:#b3b3b3"/><path d="M101.71,90.65c0,.54,0,1.07-.55,1.07H88.31a1,1,0,0,1-.84-1.07v-.38c0-.54.32-1.18.84-1.18h12.85c.52,0,.55.64.55,1.18Z" style="fill:#b3b3b3"/><path d="M145.46,75.14c0,.54-.34.77-.86.77H119.34c-.52,0-1.29-.23-1.29-.77v-.39c0-.53.77-1,1.29-1H144.6a.88.88,0,0,1,.86,1Z" style="fill:#b3b3b3"/><path d="M145.46,79c0,.53-.34,1.11-.86,1.11H119.34c-.52,0-1.29-.58-1.29-1.11v-.39c0-.53.77-1.14,1.29-1.14H144.6c.52,0,.86.61.86,1.14Z" style="fill:#b3b3b3"/><path d="M145.46,82.9c0,.53-.34,1.44-.86,1.44H119.34c-.52,0-1.29-.91-1.29-1.44v-.39a1.67,1.67,0,0,1,1.29-1.33H144.6c.52,0,.86.79.86,1.33Z" style="fill:#b3b3b3"/><path d="M145.46,86.78c0,.53-.34,1.25-.86,1.25H119.34a1.59,1.59,0,0,1-1.29-1.25v-.39c0-.54.77-1,1.29-1H144.6a.91.91,0,0,1,.86,1Z" style="fill:#b3b3b3"/><path d="M133.34,90.65a1.24,1.24,0,0,1-1.15,1.07H119.34c-.52,0-1.29-.53-1.29-1.07v-.38a1.5,1.5,0,0,1,1.29-1.18h12.85a1.35,1.35,0,0,1,1.15,1.18Z" style="fill:#b3b3b3"/><path d="M84.31,75.14c0,.54-.47.77-1,.77H58.06c-.52,0-1.16-.23-1.16-.77v-.39c0-.53.64-1,1.16-1H83.32a1,1,0,0,1,1,1Z" style="fill:#b3b3b3"/><path d="M84.31,79a1.13,1.13,0,0,1-1,1.11H58.06A1.3,1.3,0,0,1,56.9,79v-.39a1.33,1.33,0,0,1,1.16-1.14H83.32a1.16,1.16,0,0,1,1,1.14Z" style="fill:#b3b3b3"/><path d="M84.31,82.9c0,.53-.47,1.44-1,1.44H58.06c-.52,0-1.16-.91-1.16-1.44v-.39c0-.54.64-1.33,1.16-1.33H83.32c.52,0,1,.79,1,1.33Z" style="fill:#b3b3b3"/><path d="M84.31,86.78c0,.53-.47,1.25-1,1.25H58.06a1.45,1.45,0,0,1-1.16-1.25v-.39a1.18,1.18,0,0,1,1.16-1H83.32a1,1,0,0,1,1,1Z" style="fill:#b3b3b3"/><path d="M71.66,90.65c0,.54-.23,1.07-.75,1.07H58.06a1.25,1.25,0,0,1-1.16-1.07v-.38a1.36,1.36,0,0,1,1.16-1.18H70.91c.52,0,.75.64.75,1.18Z" style="fill:#b3b3b3"/><path d="M195.27,143.76a5.29,5.29,0,0,1-5.07,5.39h-53a5.51,5.51,0,0,1-5.32-5.39V70.35A5.51,5.51,0,0,1,137.17,65h53a5.3,5.3,0,0,1,5.07,5.39Z" style="fill:#4d4d4d"/><rect x="137.05" y="71.27" width="53.04" height="64.53" style="fill:#f2f2f2"/><path d="M167.94,142.3a4.26,4.26,0,1,1-4.25-4.26A4.25,4.25,0,0,1,167.94,142.3Z" style="fill:#b3b3b3"/><path d="M164.12,81.3a1.45,1.45,0,0,1-1.57,1.46H145.34a1.49,1.49,0,0,1-1.62-1.46V78.07a1.61,1.61,0,0,1,1.62-1.61h17.21a1.58,1.58,0,0,1,1.57,1.61Z" style="fill:#f2c351"/><path d="M183.41,101.74a1.68,1.68,0,0,1-1.49,1.79H145.34a1.77,1.77,0,0,1-1.62-1.79V86.68A1.68,1.68,0,0,1,145.34,85h36.58a1.58,1.58,0,0,1,1.49,1.69Z" style="fill:#6892dd"/><path d="M162.64,114.66a1.58,1.58,0,0,1-1.7,1.48h-15.6a1.51,1.51,0,0,1-1.62-1.48v-8.07a1.57,1.57,0,0,1,1.62-1.57h15.6a1.65,1.65,0,0,1,1.7,1.57Z" style="fill:#999"/><path d="M183.41,114.66a1.4,1.4,0,0,1-1.49,1.48h-15.6a1.38,1.38,0,0,1-1.46-1.48v-8.07a1.44,1.44,0,0,1,1.46-1.57h15.6a1.47,1.47,0,0,1,1.49,1.57Z" style="fill:#999"/><path d="M183.41,119.36c0,.37-.17.49-.53.49H165.36c-.36,0-.5-.12-.5-.49v-.27c0-.37.14-.72.5-.72h17.52c.36,0,.53.35.53.72Z" style="fill:#b3b3b3"/><path d="M183.41,122.05c0,.37-.17.77-.53.77H165.36c-.36,0-.5-.4-.5-.77v-.27c0-.37.14-.81.5-.81h17.52c.36,0,.53.44.53.81Z" style="fill:#b3b3b3"/><path d="M183.41,124.74c0,.37-.17.68-.53.68H165.36c-.36,0-.5-.31-.5-.68v-.27c0-.37.14-.54.5-.54h17.52c.36,0,.53.17.53.54Z" style="fill:#b3b3b3"/><path d="M183.41,127.43c0,.37-.17.58-.53.58H165.36c-.36,0-.5-.21-.5-.58v-.27c0-.37.14-.63.5-.63h17.52c.36,0,.53.26.53.63Z" style="fill:#b3b3b3"/><path d="M174.88,130.12c0,.37-.25.86-.61.86h-8.91c-.36,0-.5-.49-.5-.86v-.27c0-.37.14-.73.5-.73h8.91a.68.68,0,0,1,.61.73Z" style="fill:#b3b3b3"/><path d="M162.64,119.36c0,.37-.38.49-.74.49H144.38c-.37,0-.66-.12-.66-.49v-.27a.71.71,0,0,1,.66-.72H161.9a.79.79,0,0,1,.74.72Z" style="fill:#b3b3b3"/><path d="M162.64,122.05a.83.83,0,0,1-.74.77H144.38a.75.75,0,0,1-.66-.77v-.27c0-.37.29-.81.66-.81H161.9a.87.87,0,0,1,.74.81Z" style="fill:#b3b3b3"/><path d="M162.64,124.74a.75.75,0,0,1-.74.68H144.38a.67.67,0,0,1-.66-.68v-.27c0-.37.29-.54.66-.54H161.9c.36,0,.74.17.74.54Z" style="fill:#b3b3b3"/><path d="M162.64,127.43c0,.37-.38.58-.74.58H144.38a.59.59,0,0,1-.66-.58v-.27a.63.63,0,0,1,.66-.63H161.9a.71.71,0,0,1,.74.63Z" style="fill:#b3b3b3"/><path d="M154.11,130.12a1,1,0,0,1-.82.86h-8.91c-.37,0-.66-.49-.66-.86v-.27a.72.72,0,0,1,.66-.73h8.91a.88.88,0,0,1,.82.73Z" style="fill:#b3b3b3"/><polygon points="125.69 139.75 201.12 146.73 195.39 151.05 131.39 151.05 125.69 139.75" style="fill:#fff"/></g></g></svg>