<svg xmlns="http://www.w3.org/2000/svg" viewBox="0 0 188 161.7"><title>Asset 8</title><g id="220659e1-deeb-4258-b9b7-52c10693cb74" data-name="Layer 2"><g id="59e702f3-fbe2-49e1-abfe-c89decefed0d" data-name="Layer 1"><path d="M188,17.06,147.72,159A2.7,2.7,0,0,1,145,161.7L3,111.89a2.86,2.86,0,0,1-2.56-2.7L25.34,26.6c-.24-1.83,0-2.34.95-3a2.66,2.66,0,0,1,1.5-.46l157.52-8.79A2.7,2.7,0,0,1,188,17.06Z" style="fill:#ef9d25"/><path d="M153.43,102.36a2,2,0,0,1,.14-.85,11.69,11.69,0,0,0,.57-3.71V78q0-11.82,0-23.65c0-.22,0-.44,0-.66,0,.17.09.33.12.49q1,5.79,2,11.58c.66,3.84,1.3,7.68,2,11.51.55,3.25,1.12,6.48,1.67,9.73.23,1.33.47,2.66.67,4a9.5,9.5,0,0,1-1.73,7.21,9.1,9.1,0,0,1-4,3.16,2.6,2.6,0,0,0-1.22.87A.76.76,0,0,1,153.43,102.36Z" style="fill:#d8d7b8"/><path d="M153.43,102.36a8.6,8.6,0,0,0-.79,1.11,9.59,9.59,0,0,1-6.49,4.41l-.92.16c-.44,0-.87,0-1.31,0H49.1c-.56,0-1.12,0-1.67,0a3.69,3.69,0,0,1-.58,0,9.51,9.51,0,0,1-5.45-2.66,1.24,1.24,0,0,0-.53-.37,1.26,1.26,0,0,0-.24-.44l-.84-1.17c.11-.22.22-.43.34-.64.5-.85,1-1.68,1.49-2.57q3.59-7.17,7.19-14.32c.48-1,1-1.94,1.49-2.9a1.65,1.65,0,0,1,.11.85v7c0,.82,0,.86.86.86,4.57,0,9.14,0,13.71,0a4.36,4.36,0,0,0,.51,0,.3.3,0,0,0,.28-.29,5.79,5.79,0,0,0,0-.72V82.62c0-1.07,0-1.07-1.09-1.07H51a18.14,18.14,0,0,1,1.13-2.35,29.72,29.72,0,0,0,2.39-5.34h2.66l6,0a.93.93,0,0,1,.42.47A7.3,7.3,0,0,0,64,75.45a13.38,13.38,0,0,0,.85,1.27c.05.07.11.15.23.13s.31.12.3.3a1.42,1.42,0,0,0,.49,1.16c.34.34.7.66,1,1a.44.44,0,0,0,.32.15.83.83,0,0,1,.81.5,2,2,0,0,0,.23.28c.22.25.43.53.83.49.11,0,.17.08.2.18a.51.51,0,0,0,.25.34,3.31,3.31,0,0,0,1.2.49,1,1,0,0,1,.36.14,6.61,6.61,0,0,1,1.29.93,1.86,1.86,0,0,0,1.38.55c.18,0,.45,0,.54.14s.43.17.63.28v6.67c0,.22,0,.44,0,.66s.13.43.44.46a4.34,4.34,0,0,0,.51,0c4.5,0,9,0,13.5,0,.92,0,.94,0,.94-.93,0-2,0-3.91,0-5.87a2,2,0,0,0,.52-.22,3.37,3.37,0,0,1,.76-.43,3.28,3.28,0,0,0,.9-.53.94.94,0,0,1,.5-.27c.46-.08.69-.59,1.17-.65a6.14,6.14,0,0,1,.72-.88c.18-.26.29-.54.65-.64.1,0,.19-.21.25-.34.19-.36.36-.74.54-1.1,0-.08.08-.22.2-.16s.25-.07.29-.19c.11-.37.19-.75.29-1.13s.13-.46.39-.57c.1,0,.16-.18.2-.29.2-.51.39-1,.59-1.56a.22.22,0,0,0-.06-.25c-.38-.43-.37-.6.07-.9a.58.58,0,0,1,.14,0,.36.36,0,0,0,.24-.46,6.54,6.54,0,0,1,0-1c.23-.28.11-.59.07-.9a1.93,1.93,0,0,1,0-.86c0-.17.23-.3.35-.44s.14-.25.07-.33A.88.88,0,0,1,99,69.7c0-.11,0-.2-.21-.23s-.31-.14-.26-.31.22-.52,0-.8c0-.07,0-.19.11-.23s.2-.12.15-.27a1.89,1.89,0,0,1-.18-.77,3.08,3.08,0,0,0-.17-.8,3.82,3.82,0,0,1-.14-.56c0-.17.06-.35.07-.53a.71.71,0,0,0,0-.41l-.9-1.58c-.25-.12-.25-.35-.22-.56a1.27,1.27,0,0,0-.43-1.1,1.74,1.74,0,0,1-.42-.49,2.21,2.21,0,0,0-.86-1.29s0,0,0-.06a2.37,2.37,0,0,0-1.05-1.16,1.07,1.07,0,0,1-.52-.74.37.37,0,0,0-.62-.21c-.08,0-.14,0-.14,0,0-.33-.18-.48-.52-.42-.11,0-.16-.09-.23-.14a1.43,1.43,0,0,1-.54-.68,1.6,1.6,0,0,0-.28-.43c-.15-.17-.28-.29-.55-.2s-.46-.07-.64-.25c0-.2,0-.39,0-.58v-7.7c0-.19,0-.39,0-.58,0-.51-.11-.6-.59-.62H76a5.56,5.56,0,0,0-.58,0,.39.39,0,0,0-.42.41A5.52,5.52,0,0,0,75,47v2.68c0,1.89,0,3.78,0,5.67-.11-.05-.24-.11-.33,0a1.8,1.8,0,0,1-.85.5,3.47,3.47,0,0,0-.65.29c-.13.08-.34,0-.4.2s-.24.19-.39.25l-.15,0a.28.28,0,0,0,0-.39c-.1-.14-.27-.08-.39,0s-.51.28-.75.42c-.09.06-.09.15-.1.25,0,.35-.2.45-.53.37-.18,0-.36-.15-.55-.07s-.17.38-.25.56-.17.22-.32.1-.24-.06-.32.08l-.11.19-.18,0c-.2.07-.24.42-.56.33-.07,0-.2.12-.28.2s-.28.33-.43.48-.39.62-.83.6c0,0-.12.07-.17.12a22.85,22.85,0,0,1-1.84,1.71L62,61.66a2.33,2.33,0,0,0-.79,0l-.79.1c-1.16.11-2.32.2-3.47.35a12,12,0,0,0-1.79.24,1.29,1.29,0,0,0-.67.18L53.4,63,47.46,62l-6.81-1.11a13.75,13.75,0,0,1-2.2-.41c0-.36,0-.72,0-1.09V31.85c0-.34,0-.68,0-1H154.05c0,.34,0,.68,0,1v18c0,1.28,0,2.56,0,3.84,0,.22,0,.44,0,.66q0,11.82,0,23.65V97.8a11.69,11.69,0,0,1-.57,3.71A2,2,0,0,0,153.43,102.36ZM120.71,83.52c-.18.16-.38.3-.55.48A9.5,9.5,0,0,0,118,87.87a14.91,14.91,0,0,0-.54,4.51c0,.36.08.72.09,1.08,0,1,.16,1.93.26,2.89.08.79.19,1.58.21,2.38a30.83,30.83,0,0,1-.4,5.34l-.36,2.43a1.59,1.59,0,0,0-.26.89.14.14,0,0,0,.21.13,4.6,4.6,0,0,0,.53-.37c.17-.13.32-.29.49-.43l2.13-1.75,2.55-2.14,1.21-1,1.44-1.21,2.12-1.76c.78-.66,1.54-1.32,2.32-2l2.12-1.76c.86-.71,1.71-1.43,2.55-2.14l1.22-1,1.38-1.17c.7-.59,1.42-1.16,2.12-1.75s1.5-1.3,2.26-1.94c1.07-.9,2.16-1.78,3.23-2.68s2.1-1.79,3.15-2.68c1.33-1.12,2.68-2.22,4-3.33a1,1,0,0,0,.21-.21.2.2,0,0,0,0-.26.26.26,0,0,0-.19-.06l-1.36.23c-.67.13-1.36.08-2,.18a24.57,24.57,0,0,1-3,.1,2.26,2.26,0,0,1-.58,0,4.17,4.17,0,0,0-1.22-.1,13.27,13.27,0,0,1-2.6-.18c-1.3-.18-2.58-.43-3.87-.61s-2.34-.34-3.53-.4a17.91,17.91,0,0,0-2.74,0,9.64,9.64,0,0,0-2.55.52,23,23,0,0,0-3.43,1.55,10.33,10.33,0,0,0-3.73,3.37A10,10,0,0,1,120.71,83.52Zm10.49-9.67h6.9c.91,0,.93,0,.93-.95V64.63c0-.93,0-.95-.93-.95H124.45a3.82,3.82,0,0,0-.58,0,.36.36,0,0,0-.36.37,5.72,5.72,0,0,0,0,.58v8.21a5.72,5.72,0,0,0,0,.58.35.35,0,0,0,.36.37,4.86,4.86,0,0,0,.66,0ZM107.26,63.68h-6.82c-.9,0-.93,0-.93.95v8.28a4.35,4.35,0,0,0,0,.51c0,.27.14.38.41.41a2.17,2.17,0,0,0,.36,0h13.8c.76,0,.81-.06.81-.84,0-2.83,0-5.67,0-8.5a2.74,2.74,0,0,0,0-.5.32.32,0,0,0-.28-.29,6,6,0,0,0-.73,0Zm0,27.89c2.25,0,4.5,0,6.75,0,.92,0,.94,0,.94-.92q0-4.11,0-8.21a4.35,4.35,0,0,0,0-.51.36.36,0,0,0-.38-.36c-.24,0-.48,0-.72,0H100.28c-.69,0-.75.07-.77.75v8.35c0,.9,0,.92.95.92C102.71,91.58,105,91.57,107.22,91.57ZM131.71,56h6.83c.91,0,.93,0,.93-.95V46.9c0-.92,0-.94-.93-.94H125a5.62,5.62,0,0,0-.58,0,.36.36,0,0,0-.36.38,3.75,3.75,0,0,0,0,.58c0,2.69,0,5.37,0,8.06a5.62,5.62,0,0,0,0,.58.36.36,0,0,0,.36.38c.22,0,.44,0,.65,0Zm-24.52,0h6.68a6,6,0,0,0,.73,0,.31.31,0,0,0,.28-.28,4.86,4.86,0,0,0,0-.66q0-4,0-8.06a4.34,4.34,0,0,0,0-.51c0-.33-.12-.43-.44-.46a4.13,4.13,0,0,0-.5,0H100.45c-.92,0-.94,0-.94.94V55c0,1,0,1,1,1ZM58.07,56h7c.68,0,.74-.07.76-.75V46.88c0-.9,0-.92-1-.92H51.35c-.92,0-.94,0-.94.92v8.21a4.35,4.35,0,0,0,0,.51.36.36,0,0,0,.38.36c.22,0,.44,0,.66,0Z" style="fill:#fdfde4"/><path d="M154.05,30.83H38.49c0-.29,0-.58,0-.86q0-5.34,0-10.67A15.2,15.2,0,0,1,43,8.27a15.22,15.22,0,0,1,9.07-4.48A13.09,13.09,0,0,1,54,3.67c0,.26,0,.53,0,.79V8.37a2.25,2.25,0,0,0,.17,1,2.36,2.36,0,0,0,4.52-.84c0-.34,0-.67,0-1,0-1.28,0-2.56,0-3.83h23c0,.36,0,.72,0,1.08,0,1.21,0,2.41,0,3.62a2.28,2.28,0,0,0,.9,1.89,2.35,2.35,0,0,0,3.79-1.38,5.65,5.65,0,0,0,.07-1c0-1.4,0-2.79,0-4.19h21.33c0,.26,0,.53,0,.79,0,1.21,0,2.41,0,3.62a3.25,3.25,0,0,0,.14,1.07,2.29,2.29,0,0,0,1.39,1.47,2.37,2.37,0,0,0,3.22-2c0-.22,0-.44,0-.65,0-1.43,0-2.85,0-4.27H134.1c0,.26,0,.52,0,.79,0,1.21,0,2.41,0,3.62,0,.17,0,.34,0,.51a2.36,2.36,0,0,0,4.72-.07c0-.61,0-1.21,0-1.81,0-1,0-2,0-3a15.67,15.67,0,0,1,12.92,7.52A15.07,15.07,0,0,1,154,18c0,.48.07,1,.07,1.44V30C154.1,30.26,154.07,30.55,154.05,30.83Z" style="fill:#6892dd"/><path d="M40.87,104.93a1.24,1.24,0,0,1,.53.37A9.51,9.51,0,0,0,46.85,108a3.69,3.69,0,0,0,.58,0c.55,0,1.11,0,1.67,0h94.82c.44,0,.87,0,1.31,0a9.55,9.55,0,0,1-7.61,6.51,10.13,10.13,0,0,1-3.6-.07c-2.25-.34-4.5-.65-6.75-1l-6.46-1-6.54-.94-5.24-.77-3.45-.51a5.75,5.75,0,0,0-1.94.06c-2.88.51-5.77,1-8.66,1.48l-8.79,1.5L78,114.78,69,116.31l-9.08,1.54c-.93.16-1.86.34-2.8.46a9.15,9.15,0,0,1-5-.78A8.84,8.84,0,0,1,48.84,115a2.5,2.5,0,0,0-1.24-.81,9.51,9.51,0,0,1-6.55-7.14A5.84,5.84,0,0,1,40.87,104.93Z" style="fill:#d8d7b8"/><path d="M86.59,3.68c0,1.4,0,2.79,0,4.19a5.65,5.65,0,0,1-.07,1,2.35,2.35,0,0,1-3.79,1.38,2.28,2.28,0,0,1-.9-1.89c0-1.21,0-2.41,0-3.62,0-.36,0-.72,0-1.08s0-.77,0-1.16a3,3,0,0,1,.1-.79A2.38,2.38,0,0,1,84.22,0a2.35,2.35,0,0,1,2.25,1.8,6.48,6.48,0,0,1,.1.86C86.59,3,86.58,3.34,86.59,3.68Z" style="fill:#ecedee"/><path d="M138.89,3.66c0,1,0,2,0,3.05,0,.6,0,1.2,0,1.81a2.36,2.36,0,0,1-4.72.07c0-.17,0-.34,0-.51,0-1.21,0-2.41,0-3.62,0-.27,0-.53,0-.79l0-1.16a2.94,2.94,0,0,1,.08-.72A2.31,2.31,0,0,1,136.83,0a2.32,2.32,0,0,1,2,2.19C138.9,2.7,138.88,3.18,138.89,3.66Z" style="fill:#ecedee"/><path d="M112.74,3.68c0,1.42,0,2.84,0,4.27,0,.21,0,.43,0,.65a2.37,2.37,0,0,1-3.22,2,2.29,2.29,0,0,1-1.39-1.47A3.25,3.25,0,0,1,108,8.08c0-1.21,0-2.41,0-3.62,0-.26,0-.53,0-.79,0-.46,0-.92,0-1.38a2.31,2.31,0,0,1,1.18-2,2.36,2.36,0,0,1,3.57,1.9C112.75,2.71,112.73,3.19,112.74,3.68Z" style="fill:#ecedee"/><path d="M58.72,3.68c0,1.27,0,2.55,0,3.83,0,.34,0,.67,0,1a2.36,2.36,0,0,1-4.52.84,2.25,2.25,0,0,1-.17-1V4.46c0-.26,0-.53,0-.79,0-.46.05-.92,0-1.37a2.35,2.35,0,0,1,4.7-.07C58.71,2.71,58.71,3.19,58.72,3.68Z" style="fill:#ecedee"/><path d="M120.71,83.52a10,10,0,0,0,.76-1,10.33,10.33,0,0,1,3.73-3.37,23,23,0,0,1,3.43-1.55,9.64,9.64,0,0,1,2.55-.52,17.91,17.91,0,0,1,2.74,0c1.19.06,2.36.23,3.53.4s2.57.43,3.87.61a13.27,13.27,0,0,0,2.6.18,4.17,4.17,0,0,1,1.22.1,2.26,2.26,0,0,0,.58,0,24.57,24.57,0,0,0,3-.1c.66-.1,1.35,0,2-.18l1.36-.23a.26.26,0,0,1,.19.06.2.2,0,0,1,0,.26,1,1,0,0,1-.21.21c-1.33,1.11-2.68,2.21-4,3.33-1.05.89-2.09,1.79-3.15,2.68s-2.16,1.78-3.23,2.68c-.76.64-1.5,1.3-2.26,1.94s-1.42,1.16-2.12,1.75l-1.38,1.17-1.22,1c-.84.71-1.69,1.43-2.55,2.14L130,96.85c-.78.65-1.54,1.31-2.32,2l-2.12,1.76-1.44,1.21-1.21,1L120.33,105l-2.13,1.75c-.17.14-.32.3-.49.43a4.6,4.6,0,0,1-.53.37.14.14,0,0,1-.21-.13,1.59,1.59,0,0,1,.26-.89,1.41,1.41,0,0,0,.25-.59,54.23,54.23,0,0,0,1.42-6.15,22.34,22.34,0,0,0,.33-3.83c0-.5-.09-1-.1-1.52,0-.82,0-1.64,0-2.47a25.5,25.5,0,0,1,.29-3.9,14.71,14.71,0,0,1,.93-3.5A3.67,3.67,0,0,0,120.71,83.52Z" style="fill:#d8d7b8"/><path d="M75,83.77c-.2-.11-.48,0-.63-.28s-.36-.16-.54-.14a1.86,1.86,0,0,1-1.38-.55,6.61,6.61,0,0,0-1.29-.93,1,1,0,0,0-.36-.14,3.31,3.31,0,0,1-1.2-.49.51.51,0,0,1-.25-.34c0-.1-.09-.19-.2-.18-.4,0-.61-.24-.83-.49a2,2,0,0,1-.23-.28.83.83,0,0,0-.81-.5.44.44,0,0,1-.32-.15c-.35-.33-.71-.65-1-1a1.42,1.42,0,0,1-.49-1.16c0-.18-.07-.34-.3-.3s-.18-.06-.23-.13A13.38,13.38,0,0,1,64,75.45a7.3,7.3,0,0,1-.35-1.15.93.93,0,0,0-.42-.47.62.62,0,0,0-.06-.68.75.75,0,0,1-.1-.62c.06-.26.11-.53-.2-.7-.08,0,0-.11,0-.18a1.39,1.39,0,0,0-.23-.84.71.71,0,0,1-.14-.47,1.7,1.7,0,0,1,.21-.76.45.45,0,0,0,.05-.34,2.77,2.77,0,0,1,0-1.82,7.52,7.52,0,0,0,.19-.92,3.68,3.68,0,0,1,.41-1.38.28.28,0,0,0,0-.34c-.08-.12-.21-.08-.33-.07l2-2.25a5.79,5.79,0,0,0,.45-.65c.1-.15,0-.28-.17-.3l-.58,0a22.85,22.85,0,0,0,1.84-1.71s.12-.13.17-.12c.44,0,.59-.35.83-.6s.28-.33.43-.48.21-.22.28-.2c.32.09.36-.26.56-.33,0,.08,0,.19.1.19s.09-.08.08-.15l.11-.19c.08-.14.15-.21.32-.08s.26.05.32-.1,0-.45.25-.56.37,0,.55.07c.33.08.48,0,.53-.37,0-.1,0-.19.1-.25.24-.14.49-.29.75-.42s.29-.13.39,0a.28.28,0,0,1,0,.39c-.09,0-.14,0-.17.09l-.15.14s-.09.1,0,.14.11,0,.16,0l.14-.1c.1-.06.22-.11.2-.27.15-.06.34,0,.39-.25s.27-.12.4-.2a3.47,3.47,0,0,1,.65-.29,1.8,1.8,0,0,0,.85-.5c.09-.11.22-.05.33,0s.06.13.11.16.13,0,.16-.08.07-.18.11-.28c.19.07.4.23.54.18.37-.13.81,0,1.11-.35h0l.09.39h.09c.26-.09.36-.41.59-.5s.51.09.77,0A2.51,2.51,0,0,0,79,54.7a1.49,1.49,0,0,1,1-.07,1.16,1.16,0,0,0,.69,0c.2-.08.46,0,.7,0a.37.37,0,0,0,.21,0,.71.71,0,0,1,.69,0c.11.05.18,0,.23-.1a.15.15,0,0,1,.16-.11c.39,0,.79,0,1.19,0a.55.55,0,0,1,.59.58,1.19,1.19,0,0,1-.06.5c-.1.19,0,.32.06.48a3.83,3.83,0,0,1-.42.28c-.33.17-.46.13-.7-.22-.09-.14-.2-.21-.35-.14a1.39,1.39,0,0,1-.78.08c-.27,0-.52-.05-.71.22-.08.12-.27.1-.41.1a1.54,1.54,0,0,1-.56-.14.66.66,0,0,0-.86.1c-.07.07-.18,0-.27.08a2.23,2.23,0,0,1-1.25.12,1.26,1.26,0,0,0-.51,0l-1.41.3a9,9,0,0,1-2,.37,1.23,1.23,0,0,0-.72.31c-.17.12-.33.28-.5.41a4.62,4.62,0,0,1-.55.35c-.25.13-.53,0-.78,0s-.38.42-.65.4a.37.37,0,0,0-.43.24,3.45,3.45,0,0,1-.7.73.66.66,0,0,1-.65.2,2.77,2.77,0,0,0-.58,0s-.08.05-.1.09,0,.11,0,.13.16.1.22.16a.25.25,0,0,1,0,.43,3.13,3.13,0,0,1-.32.15,1.69,1.69,0,0,0-.77.51c-.5-.16-.52-.16-.71.29a1.94,1.94,0,0,0-.05.2l-.11.09-.26.06c-.09,0-.16.08-.14.19a.19.19,0,0,1,0,.07c-.05.22-.29.2-.42.33s0,.41-.16.59a1,1,0,0,1-.15.14.24.24,0,0,0-.07.25.41.41,0,0,0-.28.45c0,.55-.2,1.08-.15,1.64a.56.56,0,0,1-.12.33,3.07,3.07,0,0,0-.29.87c-.12.43-.1.92-.51,1.24-.06,0,0,.14,0,.19l.34.26a.23.23,0,0,1,.11.24c-.11.34,0,.68,0,1a1.69,1.69,0,0,0,0,1c-.16.38,0,.7.17,1s.17.4.24.61a3.17,3.17,0,0,0,.61.87,1.4,1.4,0,0,1,0,.5c-.11.33-.07.41.2.56.1.05.23,0,.29.17A11.24,11.24,0,0,1,67,76a1.65,1.65,0,0,0,.86,1l.55.34a1.7,1.7,0,0,1,.89,1.34.35.35,0,0,0,.3.35l.57.12c.21,0,.46.09.58.27s.58.41.81.67a2,2,0,0,0,.93.51c.4.14.87.1,1.19.47,0,0,.18,0,.27,0a2,2,0,0,1,1.66.8c.18-.21.4-.22.6-.31,0,.2.12.39.16.59s.14.29.33.27a.39.39,0,0,1,.33,0h0s-.07.08-.07.12.07.09.14,0l.12-.08c.11-.08.22-.21.34-.22a1.22,1.22,0,0,1,.48.1,6.18,6.18,0,0,0,1.32.37c.55.06,1,.41,1.56.51.09,0,.17.15.24.24a.32.32,0,0,0,.32.12.79.79,0,0,0,.52-.22.44.44,0,0,1,.58-.1,2.36,2.36,0,0,1,.62.34.25.25,0,0,0,.42-.06h0a1.37,1.37,0,0,0,.69-.18c.31-.25.66,0,1-.09.06,0,.07.08.06.16,0,.26.13.45.32.33a1.29,1.29,0,0,1,.54-.1,1.21,1.21,0,0,0,.41-.12l1.2-.48a.48.48,0,0,1,.28,0,1,1,0,0,0,.7,0c.19-.07.31,0,.37.23s.19.17.24,0A.67.67,0,0,1,90,83a.58.58,0,0,0,.36-.22,1.61,1.61,0,0,1,.54-.17,1.52,1.52,0,0,0,.81-.28,3.1,3.1,0,0,1,.57-.3.5.5,0,0,0,.35-.34,4.69,4.69,0,0,1,.55-.91l.15.08c.17.1.27.08.31-.07s0-.29,0-.43.07-.27.19-.3.29-.29.37-.49.07-.26.21-.26c.39,0,.46-.27.51-.59a3.63,3.63,0,0,1,.21-.69.92.92,0,0,1,.29-.49c.47.36.76.17.69-.38v-.07l0,0,0,0c-.21-.07-.36.12-.55.12,0-.06-.1-.15-.08-.18.15-.22.27-.51.48-.6s.32-.27.47-.41.45-.5.2-.87a.26.26,0,0,1,0-.21c.09-.17-.19-.3,0-.47s0-.3-.08-.45a.28.28,0,0,1,.23-.37c.07,0,.15,0,.22,0s.15,0,.15-.11a.37.37,0,0,0,0-.21c-.06-.07-.16-.1-.23-.16a.35.35,0,0,1-.07-.5,7.26,7.26,0,0,1,.85-1.07,2,2,0,0,1-.3-1.1,1.88,1.88,0,0,1,.16-1.07,1.1,1.1,0,0,0,.16.15.16.16,0,0,0,.25,0c.09-.1.11-.27,0-.31-.3-.11-.44-.37-.63-.57a.46.46,0,0,1-.09-.59c.08-.13.18-.25.14-.4a2.36,2.36,0,0,0-.31-1,2.69,2.69,0,0,1-.25-.51c0-.09-.09-.21,0-.28s.15-.32.05-.54a2.7,2.7,0,0,1-.14-.77c.24-.28-.07-.55,0-.83s-.27-.48-.38-.75-.17-.34-.25-.51-.25-.63-.38-.94a.71.71,0,0,0-.49-.49.79.79,0,0,1-.46-.33c-.21-.28-.54-.49-.53-.89-.31-.09-.28-.35-.32-.59,0,0-.09-.15-.12-.15-.33.06-.43-.29-.67-.37s-.39-.34-.6-.49-.15-.1-.11-.16c.2-.37-.1-.42-.31-.46a.81.81,0,0,1-.46-.32l-.48-.55c-.19-.19-.42-.43-.66-.4s-.56-.2-.85-.21c.09,0,.2,0,.19-.14s-.11-.13-.22-.11a.05.05,0,0,0-.08,0c-.07-.17.08-.45-.28-.47-.12,0-.24-.15-.36-.23A1.34,1.34,0,0,0,88,54.9a.25.25,0,0,1-.3-.24c0-.09-.06-.21-.13-.24s-.2.08-.3.15-.15.08-.2,0c-.34-.2-.82-.07-1.1-.46-.11-.14-.3-.18-.41-.37a.72.72,0,0,0-.74-.28c-.52.07-.54,0-.37-.61a1.81,1.81,0,0,0,.75.19.48.48,0,0,1,.32.14c.18.32.47.28.76.3h0c-.09.11,0,.14.07.19l-.09.16.19,0,.06,0,.22,0a2,2,0,0,1,1.94.36.44.44,0,0,0,.39.15,1.3,1.3,0,0,1,.79.25c.33.15.36.47.44.76,0,0,0,0,0,0,.18.18.39.34.64.25s.4,0,.55.2a1.6,1.6,0,0,1,.28.43,1.43,1.43,0,0,0,.54.68c.07,0,.12.15.23.14.34-.06.49.09.52.42,0,.07.06.09.14,0a.37.37,0,0,1,.62.21,1.07,1.07,0,0,0,.52.74,2.37,2.37,0,0,1,1.05,1.16s0,0,0,.06a2.21,2.21,0,0,1,.86,1.29,1.74,1.74,0,0,0,.42.49,1.27,1.27,0,0,1,.43,1.1c0,.21,0,.44.22.56l.9,1.58a.71.71,0,0,1,0,.41c0,.18-.07.36-.07.53a3.82,3.82,0,0,0,.14.56,3.08,3.08,0,0,1,.17.8,1.89,1.89,0,0,0,.18.77c0,.15,0,.22-.15.27s-.16.16-.11.23c.23.28.1.53,0,.8s0,.27.26.31.24.12.21.23a.88.88,0,0,0,.22.93c.07.08,0,.23-.07.33s-.3.27-.35.44a1.93,1.93,0,0,0,0,.86c0,.31.16.62-.07.9a6.54,6.54,0,0,0,0,1,.36.36,0,0,1-.24.46.58.58,0,0,0-.14,0c-.44.3-.45.47-.07.9a.22.22,0,0,1,.06.25c-.2.52-.39,1-.59,1.56,0,.11-.1.26-.2.29-.26.11-.32.34-.39.57s-.18.76-.29,1.13c0,.12-.08.28-.29.19s-.16.08-.2.16c-.18.36-.35.74-.54,1.1-.06.13-.15.31-.25.34-.36.1-.47.38-.65.64a6.14,6.14,0,0,0-.72.88c-.48.06-.71.57-1.17.65a.94.94,0,0,0-.5.27,3.28,3.28,0,0,1-.9.53,3.37,3.37,0,0,0-.76.43,2,2,0,0,1-.52.22.11.11,0,0,0-.08,0c-.22,0-.38.28-.67.16s-.42.21-.66.22a.94.94,0,0,1-.29,0,.82.82,0,0,0-.35,0c-1,.27-2,.15-2.95.33a.26.26,0,0,1-.25-.08c-.26-.24-.3-.25-.49,0a.73.73,0,0,1-.77.28l-.43-.07c-1-.19-1.94-.39-2.92-.57a3.28,3.28,0,0,0-1.36-.06.78.78,0,0,1-.43,0,6.2,6.2,0,0,0-1.2-.23,1.73,1.73,0,0,1-1.06-.43.39.39,0,0,0-.19-.1ZM94,58.77c-.11,0-.15.07-.13.18l0,0a.24.24,0,0,0,.18-.18S94,58.79,94,58.77Z" style="fill:#de4845"/><path d="M131.2,73.85h-6.67a4.86,4.86,0,0,1-.66,0,.35.35,0,0,1-.36-.37,5.72,5.72,0,0,1,0-.58V64.66a5.72,5.72,0,0,1,0-.58.36.36,0,0,1,.36-.37,3.82,3.82,0,0,1,.58,0H138.1c.91,0,.93,0,.93.95V72.9c0,.93,0,.95-.93.95Z" style="fill:#ccc"/><path d="M107.26,63.68h6.61a6,6,0,0,1,.73,0,.32.32,0,0,1,.28.29,2.74,2.74,0,0,1,0,.5c0,2.83,0,5.67,0,8.5,0,.78,0,.83-.81.84H100.3a2.17,2.17,0,0,1-.36,0c-.27,0-.39-.14-.41-.41a4.35,4.35,0,0,1,0-.51V64.63c0-.92,0-.95.93-.95Z" style="fill:#ccc"/><path d="M107.22,91.57c-2.26,0-4.51,0-6.76,0-.92,0-.95,0-.95-.92V82.3c0-.68.08-.73.77-.75h13.51c.24,0,.48,0,.72,0a.36.36,0,0,1,.38.36,4.35,4.35,0,0,1,0,.51q0,4.09,0,8.21c0,.9,0,.92-.94.92C111.72,91.58,109.47,91.57,107.22,91.57Z" style="fill:#ccc"/><path d="M131.71,56H125.1c-.21,0-.43,0-.65,0a.36.36,0,0,1-.36-.38,5.62,5.62,0,0,1,0-.58c0-2.69,0-5.37,0-8.06a3.75,3.75,0,0,1,0-.58.36.36,0,0,1,.36-.38,5.62,5.62,0,0,1,.58,0h13.51c.91,0,.93,0,.93.94V55c0,.93,0,.95-.93.95Z" style="fill:#ccc"/><path d="M107.19,56h-6.68c-1,0-1,0-1-1V46.9c0-.93,0-.94.94-.94H114a4.13,4.13,0,0,1,.5,0c.32,0,.42.13.44.46a4.34,4.34,0,0,1,0,.51q0,4,0,8.06a4.86,4.86,0,0,1,0,.66.31.31,0,0,1-.28.28,6,6,0,0,1-.73,0Z" style="fill:#ccc"/><path d="M58.07,56h-6.6c-.22,0-.44,0-.66,0a.36.36,0,0,1-.38-.36,4.35,4.35,0,0,1,0-.51V46.88c0-.9,0-.92.94-.92H64.86c.93,0,1,0,1,.92v8.35c0,.68-.08.75-.76.75Z" style="fill:#ecedee"/><path d="M50.3,82.89a5.19,5.19,0,0,1,.7-1.34H64.72c1.09,0,1.09,0,1.09,1.07v7.91a5.79,5.79,0,0,1,0,.72.3.3,0,0,1-.28.29,4.36,4.36,0,0,1-.51,0c-4.57,0-9.14,0-13.71,0-.82,0-.86,0-.86-.86v-7A1.65,1.65,0,0,0,50.3,82.89Z" style="fill:#ecedee"/><path d="M86.28,53.53c-.29,0-.58,0-.76-.3a.48.48,0,0,0-.32-.14,1.81,1.81,0,0,1-.75-.19c-.17.63-.15.68.37.61a.72.72,0,0,1,.74.28c.11.19.3.23.41.37.28.39.76.26,1.1.46.05,0,.15,0,.2,0s.17-.21.3-.15.11.15.13.24a.25.25,0,0,0,.3.24,1.34,1.34,0,0,1,.92.34c.12.08.24.22.36.23.36,0,.21.3.28.47-.34,0-.68,0-1,0H84.49c0-.16-.16-.29-.06-.48a1.19,1.19,0,0,0,.06-.5.55.55,0,0,0-.59-.58c-.4,0-.8,0-1.19,0a.15.15,0,0,0-.16.11c0,.1-.12.15-.23.1a.71.71,0,0,0-.69,0,.37.37,0,0,1-.21,0c-.24,0-.5-.13-.7,0a1.16,1.16,0,0,1-.69,0,1.49,1.49,0,0,0-1,.07,2.51,2.51,0,0,1-.49.12c-.26.09-.54-.09-.77,0s-.33.41-.59.5h-.09L77,54.93h0c-.3.32-.74.22-1.11.35-.14.05-.35-.11-.54-.18,0,.1-.08.19-.11.28s-.1.12-.16.08-.08-.11-.11-.16c0-1.89,0-3.78,0-5.67V47a5.52,5.52,0,0,1,0-.58A.39.39,0,0,1,75.4,46,5.56,5.56,0,0,1,76,46H89.77c.48,0,.57.11.59.62,0,.19,0,.39,0,.58v7.7c0,.19,0,.38,0,.58,0,0,0,0,0,0-.08-.29-.11-.61-.44-.76a1.3,1.3,0,0,0-.79-.25.44.44,0,0,1-.39-.15,2,2,0,0,0-1.94-.36l-.22,0-.16-.18c-.06,0-.16-.08-.07-.19l.2-.07c.18-.07.2-.18.06-.29a.2.2,0,0,0-.25,0c-.07,0,0,.12,0,.19A1.48,1.48,0,0,1,86.28,53.53Zm-3.61-.48a.73.73,0,0,0,.9.12c.08,0,.11-.16.23-.12l0,.06c0,.09,0,0-.06,0-.07-.25-.1-.28-.26-.16s-.36.23-.57.06c0,0-.14,0-.21,0s0-.13-.07-.2a.16.16,0,0,0-.23-.09.12.12,0,0,0-.07.11.23.23,0,0,0,.1.16A.84.84,0,0,0,82.67,53.05Z" style="fill:#ecedee"/><path d="M63,64.71c.12,0,.25,0,.33.07a.28.28,0,0,1,0,.34,3.68,3.68,0,0,0-.41,1.38,7.52,7.52,0,0,1-.19.92,2.77,2.77,0,0,0,0,1.82.45.45,0,0,1-.05.34,1.7,1.7,0,0,0-.21.76.71.71,0,0,0,.14.47,1.39,1.39,0,0,1,.23.84c0,.07,0,.14,0,.18.31.17.26.44.2.7a.75.75,0,0,0,.1.62.62.62,0,0,1,.06.68l-6,0H54.52a4.35,4.35,0,0,0-.07-2.15l3.39-1.45c.22-.1.46-.17.58-.4,1-1,1.91-2,2.86-3.07.5-.53,1-1.08,1.44-1.63.1-.12.24-.24.23-.43Z" style="fill:#ecedee"/><path d="M63,64.73c0,.19-.13.31-.23.43-.48.55-.94,1.1-1.44,1.63-1,1-1.83,2.11-2.86,3.07a2.8,2.8,0,0,1,0-.29,1,1,0,0,0-.47-.93.34.34,0,0,1-.18-.42.85.85,0,0,0-.42-1,.47.47,0,0,1-.26-.53,1.18,1.18,0,0,0-.44-1.1.63.63,0,0,1-.26-.62A.88.88,0,0,0,56,64a.32.32,0,0,1-.17-.3,1.58,1.58,0,0,0-.65-1.38A12,12,0,0,1,57,62.11c1.15-.15,2.31-.24,3.47-.35l.79-.1a2.33,2.33,0,0,1,.79,0c-.15.12-.38.05-.56.25Z" style="fill:#f9c19d"/><path d="M120.71,83.52a3.67,3.67,0,0,1-.37,1,14.71,14.71,0,0,0-.93,3.5,25.5,25.5,0,0,0-.29,3.9c0,.83,0,1.65,0,2.47,0,.51.1,1,.1,1.52a22.34,22.34,0,0,1-.33,3.83,54.23,54.23,0,0,1-1.42,6.15,1.41,1.41,0,0,1-.25.59l.36-2.43a30.83,30.83,0,0,0,.4-5.34c0-.8-.13-1.59-.21-2.38-.1-1-.24-1.92-.26-2.89,0-.36-.08-.72-.09-1.08a14.91,14.91,0,0,1,.54-4.51A9.5,9.5,0,0,1,120.16,84C120.33,83.82,120.53,83.68,120.71,83.52Z" style="fill:#ccc"/><path d="M63,64.73l-1.48-2.82c.18-.2.41-.13.56-.25l2.57-.19.58,0c.18,0,.27.15.17.3a5.79,5.79,0,0,1-.45.65l-2,2.25Z" style="fill:#0f5858"/><path d="M72.32,56.55c0,.16-.1.21-.2.27L72,56.66c0-.07.08-.12.17-.09Z" style="fill:#f9c19d"/><path d="M68.89,58.07c0,.07,0,.15-.08.15s-.09-.11-.1-.19Z" style="fill:#f9c19d"/><path d="M84.49,56h4.05c.34,0,.68,0,1,0a.05.05,0,0,1,.08,0l0,.25c.29,0,.51.25.85.21s.47.21.66.4l.48.55a.81.81,0,0,0,.46.32c.21,0,.51.09.31.46,0,.06,0,.11.11.16s.34.39.6.49.34.43.67.37c0,0,.11.1.12.15,0,.24,0,.5.32.59,0,.4.32.61.53.89a.79.79,0,0,0,.46.33.71.71,0,0,1,.49.49c.13.31.25.63.38.94s.18.34.25.51.44.41.38.75.26.55,0,.83a2.7,2.7,0,0,0,.14.77c.1.22.17.37-.05.54s0,.19,0,.28a2.69,2.69,0,0,0,.25.51,2.36,2.36,0,0,1,.31,1c0,.15-.06.27-.14.4a.46.46,0,0,0,.09.59c.19.2.33.46.63.57.11,0,.09.21,0,.31a.16.16,0,0,1-.25,0,1.1,1.1,0,0,1-.16-.15,1.88,1.88,0,0,0-.16,1.07,2,2,0,0,0,.3,1.1,7.26,7.26,0,0,0-.85,1.07.35.35,0,0,0,.07.5c.07.06.17.09.23.16a.37.37,0,0,1,0,.21c0,.09-.09.11-.15.11s-.15-.05-.22,0a.28.28,0,0,0-.23.37c0,.15.24.26.08.45s.14.3,0,.47a.26.26,0,0,0,0,.21c.25.37,0,.62-.2.87s-.24.32-.47.41-.33.38-.48.6c0,0,0,.12.08.18l-.15.33a.92.92,0,0,0-.29.49,3.63,3.63,0,0,0-.21.69c0,.32-.12.57-.51.59-.14,0-.17.15-.21.26s-.11.42-.37.49-.17.17-.19.3,0,.28,0,.43-.14.17-.31.07l-.15-.08a4.69,4.69,0,0,0-.55.91.5.5,0,0,1-.35.34,3.1,3.1,0,0,0-.57.3,1.52,1.52,0,0,1-.81.28,1.61,1.61,0,0,0-.54.17c0-.27,0-.53,0-.8a.36.36,0,0,0-.37-.37c-.22,0-.44,0-.65,0H76.25c-.2.09-.42.1-.6.31a2,2,0,0,0-1.66-.8c-.09,0-.23,0-.27,0-.32-.37-.79-.33-1.19-.47a2,2,0,0,1-.93-.51c-.23-.26-.6-.36-.81-.67s-.37-.22-.58-.27L69.64,79a.35.35,0,0,1-.3-.35,1.7,1.7,0,0,0-.89-1.34L67.9,77A1.65,1.65,0,0,1,67,76a11.24,11.24,0,0,0-.78-1.55c-.06-.13-.19-.12-.29-.17-.27-.15-.31-.23-.2-.56a1.4,1.4,0,0,0,0-.5l0-8.93a1.61,1.61,0,0,0-.18-.77.24.24,0,0,1,.07-.25,1,1,0,0,0,.15-.14c.12-.18,0-.42.16-.59s.37-.11.42-.33a.19.19,0,0,0,0-.07c.15-.06.34-.05.4-.25l.11-.09.33.1c.23,0,.28,0,.35-.19a2.83,2.83,0,0,0,.08-.4,1.69,1.69,0,0,1,.77-.51,3.13,3.13,0,0,0,.32-.15.25.25,0,0,0,0-.43c-.06-.06-.16-.1-.22-.16s0-.1,0-.13.07-.09.1-.09a2.77,2.77,0,0,1,.58,0,.66.66,0,0,0,.65-.2,3.45,3.45,0,0,0,.7-.73.37.37,0,0,1,.43-.24c.27,0,.4-.37.65-.4s.53.11.78,0a4.62,4.62,0,0,0,.55-.35c.17-.13.33-.29.5-.41a1.23,1.23,0,0,1,.72-.31,9,9,0,0,0,2-.37l1.41-.3a1.26,1.26,0,0,1,.51,0,2.23,2.23,0,0,0,1.25-.12c.09,0,.2,0,.27-.08a.66.66,0,0,1,.86-.1,1.54,1.54,0,0,0,.56.14c.14,0,.33,0,.41-.1.19-.27.44-.25.71-.22a1.39,1.39,0,0,0,.78-.08c.15-.07.26,0,.35.14.24.35.37.39.7.22A3.83,3.83,0,0,0,84.49,56Zm-1.8,17.86h6.75c.9,0,.92,0,.92-.95V64.62c0-.15,0-.29,0-.44,0-.36-.13-.47-.49-.49h-14c-.84,0-.89,0-.89.84V73a2.92,2.92,0,0,0,0,.51.32.32,0,0,0,.28.28,6,6,0,0,0,.73,0Z" style="fill:#fff"/><path d="M76.25,81.56H89.32c.21,0,.43,0,.65,0a.36.36,0,0,1,.37.37c0,.27,0,.53,0,.8A.58.58,0,0,1,90,83a.67.67,0,0,0-.58.37c-.05.13-.2.11-.24,0s-.18-.3-.37-.23a1,1,0,0,1-.7,0,.48.48,0,0,0-.28,0l-1.2.48a1.21,1.21,0,0,1-.41.12,1.29,1.29,0,0,0-.54.1c-.19.12-.35-.07-.32-.33,0-.08,0-.18-.06-.16-.32.08-.67-.16-1,.09a1.37,1.37,0,0,1-.69.18c0-.11.08-.22-.07-.28s0,0,0,0,.06.19.12.26a.25.25,0,0,1-.42.06,2.36,2.36,0,0,0-.62-.34.44.44,0,0,0-.58.1.79.79,0,0,1-.52.22.32.32,0,0,1-.32-.12c-.07-.09-.15-.23-.24-.24-.55-.1-1-.45-1.56-.51a6.18,6.18,0,0,1-1.32-.37,1.22,1.22,0,0,0-.48-.1c-.12,0-.23.14-.34.22l-.12.08c-.07,0-.14.08-.14,0s0-.08.07-.12,0,0,0-.06,0,0,0,0l.07.08a.39.39,0,0,0-.33,0c-.19,0-.29-.07-.33-.27S76.3,81.76,76.25,81.56Z" style="fill:#ecedee"/><path d="M65.63,63.48a1.61,1.61,0,0,1,.18.77l0,8.93a3.17,3.17,0,0,1-.61-.87c-.07-.21-.16-.4-.24-.61s-.33-.65-.17-1a1.69,1.69,0,0,1,0-1c.08-.32-.08-.66,0-1a.23.23,0,0,0-.11-.24l-.34-.26c-.06,0-.1-.14,0-.19.41-.32.39-.81.51-1.24a3.07,3.07,0,0,1,.29-.87.56.56,0,0,0,.12-.33c0-.56.19-1.09.15-1.64A.41.41,0,0,1,65.63,63.48Z" style="fill:#ecedee"/><path d="M67.72,61.27a2.83,2.83,0,0,1-.08.4c-.07.22-.12.24-.35.19l-.33-.1a1.94,1.94,0,0,1,.05-.2C67.2,61.11,67.22,61.11,67.72,61.27Z" style="fill:#f9c19d"/><path d="M95.48,77.5l.15-.33c.19,0,.34-.19.55-.12h0v.07C96.24,77.67,96,77.86,95.48,77.5Z" style="fill:#f9c19d"/><path d="M66.85,61.85c-.06.2-.25.19-.4.25,0-.11,0-.16.14-.19Z" style="fill:#f9c19d"/><path d="M83.64,83.63c-.06-.07-.21-.11-.12-.26s0,0,0,0,.1.17.07.28Z" style="fill:#f9c19d"/><path d="M94,58.77s.1,0,.09,0a.24.24,0,0,1-.18.18l0,0C93.86,58.84,93.9,58.78,94,58.77Z" style="fill:#ecedee"/><path d="M89.67,56.18l0-.25c.11,0,.21,0,.22.11S89.76,56.17,89.67,56.18Z" style="fill:#ecedee"/><path d="M72,56.92s-.13,0-.16,0,0-.1,0-.14Z" style="fill:#f9c19d"/><path d="M71.86,56.8l.15-.14.11.16-.14.1Z" style="fill:#f9c19d"/><polygon points="96.18 77.05 96.2 77.01 96.17 77.05 96.18 77.05" style="fill:#f9c19d"/><path d="M86.51,53.9l-.06,0-.19,0,.09-.16Z" style="fill:#ecedee"/><path d="M82.67,53c.07,0,.17-.05.21,0,.21.17.38.09.57-.06s.19-.09.26.16c0,.09.05.13.06,0l0-.06c-.12,0-.15.09-.23.12a.73.73,0,0,1-.9-.12Z" style="fill:#de4845"/><path d="M86.28,53.53a1.48,1.48,0,0,0,0-.21c0-.07,0-.14,0-.19a.2.2,0,0,1,.25,0c.14.11.12.22-.06.29l-.2.07Z" style="fill:#f9c19d"/><path d="M82.67,53v.06A.84.84,0,0,1,82.4,53a.23.23,0,0,1-.1-.16.12.12,0,0,1,.07-.11.16.16,0,0,1,.23.09C82.62,52.86,82.65,52.93,82.67,53Z" style="fill:#f9c19d"/><path d="M77,54.94h0Z" style="fill:#de4845"/><path d="M77.07,82.47,77,82.39s0,0,0,0,0,0,0,.06Z" style="fill:#de4845"/><polygon points="39.08 42.07 99.33 44.16 99.33 84.43 39.63 102.36 39.08 42.07" style="fill:#fdfde4"/><path d="M83.11,45.89h6.61q.36,0,.72,0a.33.33,0,0,1,.29.29,4.36,4.36,0,0,1,0,.51v8.49c0,.78-.05.84-.81.84H75.79a.42.42,0,0,1-.42-.42c0-.17,0-.34,0-.51V46.83c0-.92,0-.94.93-.94Z" style="fill:#ccc"/><path d="M82.69,73.85H76a6,6,0,0,1-.73,0,.32.32,0,0,1-.28-.28A2.92,2.92,0,0,1,75,73v-8.5c0-.79.05-.84.89-.84h14c.36,0,.46.13.49.49,0,.15,0,.29,0,.44V72.9c0,.92,0,.95-.92.95Z" style="fill:#ccc"/><path d="M75,83.77l1.31.37a.39.39,0,0,1,.19.1,1.73,1.73,0,0,0,1.06.43,6.2,6.2,0,0,1,1.2.23.78.78,0,0,0,.43,0,3.28,3.28,0,0,1,1.36.06c1,.18,1.95.38,2.92.57l.43.07a.73.73,0,0,0,.77-.28c.19-.24.23-.23.49,0a.26.26,0,0,0,.25.08c1-.18,2-.06,2.95-.33a.82.82,0,0,1,.35,0,.94.94,0,0,0,.29,0c.24,0,.4-.32.66-.22s.45-.14.67-.16a.11.11,0,0,1,.08,0c0,2,0,3.91,0,5.87,0,.92,0,.93-.94.93-4.5,0-9,0-13.5,0a4.34,4.34,0,0,1-.51,0c-.31,0-.41-.14-.44-.46s0-.44,0-.66Z" style="fill:#ecedee"/><path d="M82.66,91.57c-2.25,0-4.5,0-6.75,0-.93,0-1,0-1-.92V82.3c0-.68.08-.73.76-.75H89.23c.24,0,.49,0,.73,0a.36.36,0,0,1,.38.36,4.35,4.35,0,0,1,0,.51v8.21c0,.9,0,.92-.94.92C87.17,91.58,84.91,91.57,82.66,91.57Z" style="fill:#ccc"/><path d="M58.52,45.23h6.61a5.79,5.79,0,0,1,.72,0,.32.32,0,0,1,.29.29,4.07,4.07,0,0,1,0,.5v8.5c0,.78,0,.83-.81.83H51.56a2.17,2.17,0,0,1-.36,0c-.27,0-.39-.14-.41-.41a4.35,4.35,0,0,1,0-.51V46.18c0-.92,0-1,.93-1Z" style="fill:#ccc"/><path d="M58.1,73.19H51.42c-.24,0-.49,0-.73,0a.32.32,0,0,1-.28-.29,2.81,2.81,0,0,1,0-.5v-8.5c0-.8.05-.84.89-.84H63.89c.46,0,.92,0,1.38,0s.47.13.49.49a3.2,3.2,0,0,1,0,.44v8.27c0,.93,0,1-.92,1C62.6,73.2,60.35,73.19,58.1,73.19Z" style="fill:#ccc"/><path d="M58.07,90.92H51.32c-.93,0-1,0-1-.92V81.64c0-.67.08-.73.76-.74.13,0,.25,0,.37,0H64.64a5.88,5.88,0,0,1,.73,0,.36.36,0,0,1,.38.36,4.35,4.35,0,0,1,0,.51V90c0,.91,0,.93-.94.93Z" style="fill:#ccc"/><path d="M51.16,104.78c.16-.22.48-.41.36-.78-.38-.16-.55.2-.81.34a9,9,0,0,1-3.9,1.28,15.31,15.31,0,0,1-9.71-3c-4-2.83-7.47-6.08-6.61-11.71-4.59,5.84-17.07,18.46-22.71,23.3-4.64,4,3.68,9.72,14.92,7.93C33,120.54,45.83,111.86,51.16,104.78Z" style="fill:#77557f"/><path d="M35.46,56.65,31.72,55.4l-1.49-.5a2.16,2.16,0,0,0-2.93.81A6.4,6.4,0,0,0,25.76,60a2.13,2.13,0,0,0,1.55,2.12l4.43,1.54L35.53,65,40.6,66.6c2.8.89,5.61,1.77,8.41,2.67S54.34,71,57,71.9c.48.16.74.14,1-.36.8-1.89,2.95-2.5,5-1.86a3.24,3.24,0,0,1,1.79,2,5,5,0,0,0,.58,1A16.07,16.07,0,0,0,69,72.31c.37,0,.86,0,1-.47s-.31-.67-.58-.93a40.29,40.29,0,0,0-3.9-3c-.2-.14-.38-.31-.57-.46A19.4,19.4,0,0,0,60.1,65c-1.38-.36-2.72-.87-4.07-1.35-3.42-1.2-6.9-2.22-10.27-3.55C42.28,59.09,38.88,57.85,35.46,56.65Z" style="fill:#ed4a4a"/><path d="M30.49,91c-.86,5.63,2.59,8.88,6.61,11.71a15.31,15.31,0,0,0,9.71,3,9,9,0,0,0,3.9-1.28c.26-.14.43-.5.81-.34h0c-.07-.21.07-.23.22-.23l0,0c0-.16.08-.22.22-.24l0,0,.22-.2c.65-.35.79-1.16,1.43-1.52a25.15,25.15,0,0,1,2.34-2.92,91.76,91.76,0,0,0,5.24-8c2.46-4.51,4.35-9.19,4.38-14.43a25.57,25.57,0,0,0-.3-3c0-.27-.18-.54.1-.77a5,5,0,0,1-.58-1,3.24,3.24,0,0,0-1.79-2c-2-.64-4.17,0-5,1.86-.22.5-.48.52-1,.36-2.66-.9-5.32-1.77-8-2.63S43.4,67.49,40.6,66.6a29.55,29.55,0,0,0-1.11,4,45.4,45.4,0,0,1-3.8,11.7,31.59,31.59,0,0,1-3.94,6.77,8.74,8.74,0,0,1-1.08,1.68c0,.1-.05.22-.2.19Z" style="fill:#fdcc9b"/><path d="M84.06,59a14.11,14.11,0,0,0-6.87.83A13.11,13.11,0,0,0,71.43,64a6.33,6.33,0,0,0-1.25,3.44,7.61,7.61,0,0,0,.76,3.63,12,12,0,0,0,5,5,18.92,18.92,0,0,0,7.1,2.36,17.62,17.62,0,0,0,3.7.09,10.14,10.14,0,0,0,3.83-1,7.91,7.91,0,0,0,3.88-4.78,7.43,7.43,0,0,0,.24-3.18A7.2,7.2,0,0,0,94,67.31a11.46,11.46,0,0,0-3.8-4.09,15.38,15.38,0,0,0-6-2.39,15.9,15.9,0,0,0-1.81-.2.55.55,0,0,0-.55.54.57.57,0,0,0,.55.55l.84.07.21,0h.12l.43.07c.53.09,1.06.21,1.58.35s1,.32,1.5.51l.18.07c.06,0,0,0,0,0l.1,0,.35.16.69.34a14.25,14.25,0,0,1,1.25.75l.59.42.05,0,.14.11.28.23c.34.29.66.6,1,.92.15.16.3.33.44.5l.18.23,0,.05.1.14a8.61,8.61,0,0,1,.65,1l.26.52,0,.06c0,.07,0-.09,0,0a.69.69,0,0,1,0,.13c0,.09.07.18.1.26a7.11,7.11,0,0,1,.27,1.08v.08s0-.1,0,0a.77.77,0,0,0,0,.15c0,.13,0,.26,0,.38a6.26,6.26,0,0,1,0,.75l0,.33c0,.06,0,0,0,0s0,.07,0,.1l0,.2c-.05.24-.1.47-.17.7s-.15.45-.24.68,0,0,0,0l0,.07-.07.16-.18.35c-.11.21-.23.42-.36.62l-.21.29-.09.13c0,.07,0-.06,0,0l-.06.08a7.16,7.16,0,0,1-1,1l-.06,0s-.09.07,0,0l-.11.08-.3.2c-.2.13-.41.25-.62.36l-.32.15s-.1,0,0,0l-.09,0-.26.1a8.7,8.7,0,0,1-.91.26,14.21,14.21,0,0,1-3.58.29,16.72,16.72,0,0,1-3.45-.44A17.66,17.66,0,0,1,78.12,76a17.09,17.09,0,0,1-3-1.73,12.76,12.76,0,0,1-1.24-1,8.21,8.21,0,0,1-.58-.6A4.12,4.12,0,0,1,73,72.3l-.11-.13-.07-.1c-.06-.07,0,.05,0,0a7.26,7.26,0,0,1-1.4-3,5.84,5.84,0,0,1-.12-1.63,4.19,4.19,0,0,1,.11-.78,4.63,4.63,0,0,1,.25-.8,1.61,1.61,0,0,1,.13-.28,3,3,0,0,1,.21-.4c.07-.12.15-.24.23-.35l.1-.15a.86.86,0,0,0,.07-.1l0,0a9.22,9.22,0,0,1,1.18-1.24,12.7,12.7,0,0,1,2.65-1.82,13.2,13.2,0,0,1,3-1.11c.28-.07.55-.13.83-.18l.37-.06.12,0h0l.23,0A13.19,13.19,0,0,1,82.45,60a14.53,14.53,0,0,1,1.61.12.55.55,0,0,0,.54-.55.56.56,0,0,0-.54-.54Z" style="fill:#ed4a4a"/><polygon points="35.85 123.37 3 111.89 0 122.89 35.85 123.37" style="fill:#fff"/></g></g></svg>